<?xml version="1.0" standalone="no"?>
<!DOCTYPE svg PUBLIC "-//W3C//DTD SVG 20010904//EN"
 "http://www.w3.org/TR/2001/REC-SVG-20010904/DTD/svg10.dtd">
<svg version="1.0" xmlns="http://www.w3.org/2000/svg"
 width="260.000000pt" height="260.000000pt" viewBox="0 0 260.000000 260.000000"
 preserveAspectRatio="xMidYMid meet">
<metadata>
Created by potrace 1.11, written by Peter Selinger 2001-2013
</metadata>
<g transform="translate(0.000000,260.000000) scale(0.100000,-0.100000)"
fill="#000000" stroke="none">
<path d="M1131 2590 c-556 -78 -987 -483 -1107 -1041 -26 -118 -26 -380 0
-498 59 -273 167 -474 360 -667 193 -193 394 -301 667 -360 118 -26 380 -26
498 0 517 111 900 484 1019 990 22 96 26 134 26 281 0 128 -4 191 -18 254 -59
273 -167 474 -360 667 -190 189 -384 296 -646 355 -99 23 -340 33 -439 19z
m469 -55 c467 -116 813 -461 937 -933 34 -130 43 -372 19 -508 -78 -448 -372
-813 -789 -977 -172 -67 -255 -81 -472 -81 -180 0 -196 2 -308 32 -225 59
-417 170 -583 336 -238 238 -358 513 -371 851 -21 567 328 1069 871 1250 156
53 245 65 431 60 130 -3 180 -8 265 -30z"/>
<path d="M1230 2470 l0 -60 40 0 c22 0 40 5 40 10 0 6 -11 10 -25 10 -16 0
-25 6 -25 15 0 9 9 15 25 15 14 0 25 5 25 10 0 6 -11 10 -25 10 -16 0 -25 6
-25 15 0 9 9 15 25 15 14 0 25 5 25 10 0 6 -18 10 -40 10 l-40 0 0 -60z"/>
<path d="M1388 2524 c-11 -10 24 -124 38 -124 13 0 64 88 64 110 0 23 -18 8
-35 -30 -10 -22 -21 -40 -25 -40 -4 0 -10 18 -14 39 -6 38 -17 56 -28 45z"/>
<path d="M1115 2510 c-4 -6 -4 -33 0 -60 6 -45 10 -50 32 -50 43 0 63 18 63
55 0 18 -7 41 -16 49 -17 18 -69 21 -79 6z m67 -35 c12 -26 -2 -55 -27 -55
-12 0 -26 65 -16 75 12 12 32 3 43 -20z"/>
<path d="M1057 2504 c-3 -3 -2 -17 4 -31 18 -47 9 -57 -18 -20 -25 33 -51 46
-65 32 -5 -6 18 -104 27 -113 13 -13 17 11 7 48 -12 49 -4 51 27 5 13 -19 32
-35 42 -35 22 0 23 3 7 69 -11 49 -17 58 -31 45z"/>
<path d="M1517 2503 c-2 -4 -8 -24 -12 -43 -3 -19 -9 -42 -11 -51 -3 -13 7
-19 48 -27 36 -7 55 -7 59 0 9 14 49 0 49 -17 0 -14 45 -29 61 -20 17 11 47
-5 53 -28 10 -37 26 0 26 61 0 66 -16 68 -68 10 l-37 -41 -10 63 c-5 35 -15
65 -21 67 -6 2 -24 -16 -42 -40 -26 -37 -36 -44 -57 -39 -33 6 -35 11 -25 58
8 35 -1 68 -13 47z m130 -100 c-3 -3 -11 -2 -17 2 -8 5 -7 11 2 22 12 15 13
14 16 -1 2 -10 1 -20 -1 -23z m123 -23 c0 -11 -7 -20 -15 -20 -17 0 -18 2 -9
24 9 23 24 20 24 -4z"/>
<path d="M920 2466 c0 -2 6 -22 14 -44 11 -29 11 -43 3 -51 -20 -20 -34 -11
-55 37 -14 35 -21 43 -26 31 -4 -9 1 -34 11 -55 22 -46 58 -57 87 -25 17 18
17 25 6 66 -7 25 -19 45 -26 45 -8 0 -14 -2 -14 -4z"/>
<path d="M802 2418 c-7 -7 -12 -23 -12 -37 l0 -26 -19 24 c-11 15 -21 20 -25
13 -9 -15 35 -102 51 -102 16 0 16 5 3 31 -13 23 -2 24 29 3 15 -11 26 -13 33
-6 7 7 0 16 -22 27 -29 15 -31 20 -26 51 8 37 6 40 -12 22z"/>
<path d="M1826 2354 c-14 -26 -26 -50 -26 -55 0 -20 17 -7 38 29 l23 37 -3
-55 c-4 -73 19 -80 56 -16 29 49 31 56 16 56 -6 0 -19 -15 -30 -32 l-20 -33 0
46 c0 28 -6 51 -14 58 -11 9 -19 3 -40 -35z"/>
<path d="M676 2355 c-10 -8 -24 -16 -29 -18 -10 -3 48 -97 59 -97 14 0 64 32
64 40 0 13 -7 13 -32 -1 -31 -16 -45 5 -17 25 27 19 19 32 -9 17 -26 -14 -32
-14 -32 0 0 6 10 19 23 30 27 22 3 26 -27 4z"/>
<path d="M1933 2280 l-33 -49 22 -16 c46 -32 108 -6 108 45 0 14 -49 70 -61
70 -2 0 -19 -23 -36 -50z m65 -23 c-4 -25 -30 -42 -52 -34 -15 6 -14 10 6 41
17 26 26 32 36 24 7 -6 12 -20 10 -31z"/>
<path d="M607 2314 c-3 -4 8 -27 24 -51 17 -24 28 -47 25 -50 -3 -4 -6 -3 -6
2 0 4 -9 0 -21 -11 -20 -18 -21 -18 -54 21 -18 22 -36 37 -41 33 -7 -7 40 -83
58 -94 4 -3 28 9 52 27 l45 31 -32 49 c-32 49 -38 54 -50 43z"/>
<path d="M2027 2206 l-36 -43 30 -22 c17 -13 34 -20 37 -16 4 4 -1 13 -12 20
-12 9 -16 20 -12 31 6 15 8 15 26 -1 11 -10 23 -15 28 -11 4 4 -2 14 -12 22
-15 11 -17 17 -8 26 9 9 16 8 30 -5 10 -9 21 -14 25 -11 5 6 -44 54 -56 54 -2
0 -21 -20 -40 -44z"/>
<path d="M496 2221 c-8 -12 58 -91 76 -91 15 0 8 15 -30 59 -28 32 -41 41 -46
32z"/>
<path d="M444 2175 c-3 -8 4 -30 16 -50 25 -41 23 -42 -23 -15 -31 18 -35 19
-47 5 -12 -14 -8 -22 28 -58 50 -50 70 -42 21 9 l-34 36 43 -21 c58 -30 68
-19 37 37 l-26 47 35 -34 c25 -24 39 -32 46 -25 8 8 -2 22 -30 47 -44 40 -58
45 -66 22z"/>
<path d="M1516 2171 c-4 -7 -5 -15 -2 -18 9 -9 19 4 14 18 -4 11 -6 11 -12 0z"/>
<path d="M2105 2140 c-40 -41 -43 -62 -6 -38 16 10 23 10 33 0 9 -9 8 -16 -6
-31 -12 -13 -14 -21 -6 -26 10 -6 39 20 40 38 0 4 7 7 15 7 26 0 28 28 5 60
-12 16 -25 30 -29 30 -4 0 -24 -18 -46 -40z m65 -16 c0 -14 -21 -19 -33 -7 -9
9 13 34 24 27 5 -3 9 -12 9 -20z"/>
<path d="M755 2150 c-8 -24 -43 -26 -60 -3 -14 19 -35 9 -35 -18 0 -14 9 -21
30 -25 24 -5 30 -11 29 -33 0 -26 0 -26 -11 -3 -7 13 -20 22 -35 22 -23 0 -23
-1 -7 -25 9 -14 12 -25 6 -25 -5 0 -12 7 -16 15 -3 8 -16 15 -29 15 -14 0 -30
-7 -37 -15 -11 -13 -8 -15 14 -15 34 0 44 -25 20 -51 -16 -18 -16 -21 -1 -36
13 -13 19 -14 31 -3 9 7 16 19 16 26 0 23 27 16 34 -8 10 -39 7 -48 -17 -48
-25 0 -47 -17 -47 -36 0 -7 8 -10 19 -7 20 5 42 -18 23 -25 -18 -6 -14 -27 8
-47 16 -14 17 -20 8 -27 -10 -6 -4 -16 20 -39 24 -22 30 -35 23 -42 -6 -6 -11
-17 -11 -24 0 -16 32 -17 47 -2 16 16 50 -9 57 -43 7 -35 19 -36 35 -2 10 22
9 31 -7 58 -10 17 -32 40 -50 51 -24 15 -31 27 -31 50 0 30 0 30 10 5 10 -23
66 -79 82 -80 4 0 7 11 7 25 0 28 32 65 55 65 8 0 15 -7 15 -15 0 -20 46 -20
54 1 3 9 6 24 6 35 0 15 -5 18 -23 14 -18 -5 -35 3 -66 29 -24 20 -49 36 -56
36 -15 0 -45 43 -45 65 0 9 5 13 11 10 5 -4 19 1 29 10 15 13 22 14 38 4 30
-19 72 -4 72 27 0 15 -4 23 -10 19 -15 -10 -40 14 -40 37 0 17 -3 18 -15 8 -8
-7 -15 -19 -15 -26 0 -18 -14 -18 -30 1 -10 12 -8 16 15 25 40 15 30 45 -15
45 -31 0 -35 3 -32 23 1 15 -2 22 -10 19 -7 -2 -13 -20 -13 -39 0 -39 -22 -75
-38 -59 -6 6 -4 23 6 49 15 37 14 52 -4 52 -4 0 -11 -9 -14 -20z"/>
<path d="M1922 2134 c-12 -8 -22 -23 -22 -32 0 -12 3 -13 12 -4 17 17 28 15
28 -4 0 -9 -20 -39 -45 -66 -38 -43 -45 -56 -45 -92 0 -23 4 -46 10 -52 6 -6
2 -24 -11 -52 -24 -48 -20 -92 11 -132 15 -20 22 -22 31 -13 10 10 9 17 -7 34
-40 44 -14 149 36 149 24 0 46 29 59 75 19 70 64 112 73 68 2 -11 6 -14 10 -7
8 13 -12 56 -29 62 -7 2 -17 -8 -23 -22 -5 -14 -16 -26 -25 -26 -8 0 -15 -5
-15 -12 0 -6 -6 -19 -14 -27 -8 -9 -18 -32 -23 -51 -7 -25 -16 -36 -31 -38
-27 -4 -28 9 -2 33 24 21 26 40 5 31 -8 -3 -15 -1 -15 4 0 6 4 10 9 10 4 0 20
9 35 21 29 23 26 45 -5 29 -12 -7 -19 -7 -19 -1 0 15 35 31 62 28 19 -2 23 3
26 31 2 22 -3 41 -14 53 -21 23 -33 24 -62 3z"/>
<path d="M1626 2123 c-11 -11 -6 -23 9 -23 8 0 15 4 15 9 0 13 -16 22 -24 14z"/>
<path d="M1485 2101 c-18 -17 -94 -38 -120 -34 -15 3 -25 1 -25 -6 0 -6 7 -11
15 -11 8 0 15 -4 15 -10 0 -5 -7 -10 -15 -10 -21 0 -19 -13 5 -41 12 -13 32
-23 48 -24 22 0 28 -5 30 -29 2 -19 -4 -36 -19 -52 -30 -32 -46 -30 -54 6 -6
26 -9 28 -26 19 -11 -5 -18 -17 -17 -26 4 -24 43 -63 62 -63 9 0 43 20 77 45
61 45 79 53 79 36 0 -5 -10 -11 -22 -13 -12 -2 -23 -9 -26 -15 -5 -17 50 -17
66 -1 8 8 12 8 12 1 0 -17 -28 -35 -58 -38 -15 -1 -40 -10 -55 -20 -16 -10
-50 -20 -77 -23 -40 -4 -57 0 -93 21 -52 31 -73 34 -155 24 -51 -7 -65 -13
-79 -33 -17 -27 -62 -54 -89 -54 -9 0 -22 7 -29 17 -17 23 -38 7 -32 -26 3
-16 -1 -33 -10 -43 -15 -17 -14 -18 11 -18 15 0 40 7 56 15 45 23 36 2 -10
-24 -49 -28 -80 -66 -80 -100 0 -33 17 -51 46 -51 32 0 39 18 18 41 -16 18
-16 21 -2 36 10 10 25 13 40 10 29 -8 85 -53 77 -62 -4 -3 -18 5 -32 19 -26
26 -77 36 -77 15 0 -7 8 -18 18 -25 16 -13 15 -15 -8 -35 -17 -15 -32 -19 -54
-15 -22 5 -37 0 -62 -19 -19 -15 -34 -32 -34 -39 0 -25 -71 -96 -96 -96 -20 0
-24 5 -24 31 0 21 8 37 25 51 26 20 31 43 16 67 -8 12 -13 11 -30 -10 -19 -23
-21 -23 -49 -8 -22 12 -33 14 -41 6 -18 -18 -13 -33 15 -45 14 -7 22 -17 19
-22 -10 -16 -25 -11 -49 17 -17 20 -28 24 -42 19 -12 -6 -15 -10 -6 -13 19 -7
14 -44 -10 -70 -20 -22 -20 -24 -4 -42 17 -18 17 -19 -3 -26 -23 -7 -26 -21
-11 -45 8 -13 11 -12 23 4 18 25 37 13 37 -23 0 -15 3 -31 7 -34 10 -11 33 13
33 34 0 11 5 19 10 19 6 0 10 -12 10 -27 0 -21 3 -24 12 -15 7 7 19 12 27 12
12 0 12 -3 3 -12 -12 -12 -17 -48 -6 -48 3 0 14 4 24 10 14 7 23 6 35 -7 14
-14 18 -14 26 -2 12 19 11 46 -1 70 -8 14 -8 20 2 23 7 1 28 8 47 14 47 16 49
9 6 -16 -33 -20 -50 -50 -21 -39 7 3 18 1 23 -4 14 -14 43 16 50 52 6 33 18
37 32 12 9 -17 12 -16 35 6 14 14 26 33 26 43 0 20 15 24 25 8 11 -17 30 5 45
50 7 22 10 43 7 46 -4 4 -24 -9 -46 -29 -43 -39 -81 -62 -81 -50 0 5 12 16 28
25 42 26 82 72 97 114 8 22 15 37 15 34 1 -3 5 -63 9 -135 6 -92 13 -141 27
-168 21 -44 23 -41 -86 -106 -42 -25 -66 -46 -68 -60 -4 -25 -27 -28 -36 -5
-5 14 -16 16 -54 11 -51 -6 -75 2 -70 23 5 22 -17 22 -45 0 -25 -20 -35 -49
-21 -63 4 -3 13 0 21 8 17 17 39 19 48 5 3 -5 1 -10 -5 -10 -7 0 -31 -20 -56
-45 -40 -42 -42 -45 -19 -45 13 0 37 11 53 25 31 26 55 18 32 -10 -10 -12 -9
-16 4 -21 19 -7 46 12 46 32 0 18 14 18 30 -1 16 -19 29 -19 52 2 10 9 21 13
26 9 4 -4 -6 -18 -21 -30 -26 -21 -28 -27 -26 -87 2 -67 -20 -129 -56 -159
-15 -12 -19 -11 -33 7 -10 11 -27 26 -39 32 -29 15 -29 25 1 39 26 12 38 51
23 77 -8 15 -10 15 -24 -4 -17 -24 -39 -27 -50 -6 -6 9 -13 11 -23 5 -12 -7
-12 -12 0 -34 7 -14 11 -29 7 -32 -3 -3 -10 4 -17 15 -14 27 -41 27 -71 0 -16
-13 -18 -19 -7 -16 9 3 24 0 33 -6 13 -10 14 -18 6 -40 -11 -28 -10 -28 21
-25 20 2 33 -2 36 -11 3 -10 0 -12 -13 -7 -19 7 -45 -9 -45 -29 0 -8 8 -11 20
-8 29 8 51 -14 44 -44 -6 -21 -3 -24 12 -21 12 2 20 13 22 31 2 16 9 27 19 27
10 0 14 -6 10 -20 -6 -25 7 -34 22 -16 7 8 21 12 31 9 28 -8 25 -23 -5 -23
-21 0 -25 -5 -25 -29 0 -40 25 -60 40 -32 13 26 29 27 45 4 12 -17 14 -17 35
2 l22 20 -27 22 -26 23 24 0 c17 0 33 12 52 40 15 22 29 40 31 40 10 0 2 -21
-22 -55 -32 -48 -24 -86 9 -40 12 16 27 38 32 50 6 11 20 20 30 20 16 0 20 7
21 40 1 71 2 75 29 75 14 0 25 -5 25 -12 0 -8 7 -6 17 5 15 15 16 20 4 39 -10
16 -10 22 -1 28 8 5 7 9 -4 13 -28 11 -17 24 31 38 33 9 62 27 93 59 57 58
104 75 159 59 53 -16 94 -5 86 22 -4 11 -2 25 3 32 13 16 32 109 25 121 -4 5
1 7 12 3 14 -6 16 -3 12 13 -3 11 -1 20 3 20 5 0 8 -22 8 -50 -1 -46 -16 -72
-19 -32 -1 9 -5 -1 -10 -23 -4 -22 -11 -53 -15 -69 -12 -50 19 -25 43 35 17
42 22 48 23 28 0 -33 -13 -64 -66 -154 -49 -82 -68 -137 -59 -165 6 -19 3 -20
-34 -14 -42 7 -46 4 -115 -77 -16 -20 -42 -27 -31 -9 3 6 1 10 -4 10 -6 0 -11
-4 -11 -9 0 -5 -17 -15 -37 -22 -42 -13 -63 -27 -63 -40 0 -5 9 -4 20 3 16 10
24 10 40 0 11 -6 29 -12 41 -12 17 0 19 3 10 14 -10 12 -8 17 8 25 29 16 31
14 15 -18 -19 -38 -40 -55 -59 -47 -22 8 -18 -12 5 -24 24 -13 66 -4 74 16 3
8 14 14 24 14 29 0 45 26 39 60 -7 31 0 60 13 60 4 0 7 -14 6 -31 0 -18 5 -34
12 -36 8 -3 10 1 5 14 -3 10 -3 15 2 11 14 -13 44 11 47 39 3 24 5 25 18 11
28 -28 58 -38 115 -38 71 0 115 19 162 69 21 21 47 42 59 45 19 6 21 2 22 -69
2 -69 0 -77 -25 -104 -16 -16 -43 -33 -62 -36 -33 -7 -34 -6 -27 20 8 31 -7
55 -34 55 -13 0 -17 -6 -13 -20 7 -27 -13 -49 -40 -43 -22 4 -22 4 2 -17 17
-15 21 -24 14 -31 -8 -8 -18 -2 -33 19 -14 18 -28 28 -37 25 -10 -4 -11 -9 -4
-16 18 -18 13 -48 -9 -54 -21 -6 -24 -12 -14 -38 6 -14 8 -14 25 1 11 10 22
14 26 11 3 -4 1 -7 -5 -7 -23 0 -13 -38 11 -42 17 -2 22 -9 20 -31 -1 -22 2
-27 21 -27 25 0 72 45 78 74 1 11 9 21 15 23 9 3 11 -4 7 -24 -7 -37 20 -67
31 -34 4 13 15 21 30 21 26 0 41 28 25 44 -6 6 -18 11 -28 11 -31 0 -19 30 13
33 18 2 39 14 52 30 28 33 30 17 3 -18 -23 -30 -25 -50 -5 -50 8 0 15 5 15 11
0 6 11 24 25 41 14 16 25 38 25 48 0 10 4 22 10 25 8 5 50 90 50 102 0 2 -4 2
-9 -2 -5 -3 -12 -1 -16 4 -8 15 34 54 51 47 10 -4 14 2 14 19 0 22 -9 30 -32
26 -17 -2 -6 40 18 68 20 24 23 34 15 50 -8 13 -17 17 -32 14 -19 -5 -20 -4
-10 14 8 16 7 24 -4 33 -13 10 -19 9 -35 -5 -11 -10 -31 -19 -44 -20 -14 -2
-35 -10 -48 -19 -23 -17 -75 -21 -95 -8 -12 7 -18 47 -14 97 2 17 5 24 8 15
10 -27 24 -39 39 -33 9 3 12 13 9 24 -7 23 3 24 29 4 26 -20 50 -19 42 0 -3 8
0 15 6 15 7 0 36 23 64 51 35 34 58 50 68 46 21 -8 20 -37 -1 -37 -12 0 -14
-3 -7 -10 13 -13 44 -2 44 16 0 7 -11 25 -24 41 l-24 27 -42 -28 -43 -28 7 32
c3 18 17 44 31 57 19 19 25 37 27 81 3 49 6 57 23 57 15 0 19 -6 18 -25 -2
-22 -2 -23 8 -7 14 23 4 63 -17 71 -24 9 -62 -19 -78 -57 -10 -21 -15 -26 -15
-14 -1 10 13 49 29 87 36 81 37 96 9 156 -15 31 -26 43 -36 40 -8 -4 -17 -6
-19 -6 -3 0 4 -13 15 -29 27 -37 26 -58 -1 -83 -13 -11 -17 -17 -10 -13 22 11
24 -22 3 -61 -12 -21 -21 -44 -21 -51 0 -22 -14 -14 -42 24 -56 74 -47 136 31
202 25 22 59 52 76 67 17 16 31 22 33 15 5 -15 37 -14 50 2 6 6 14 26 18 42
10 44 23 58 41 44 11 -10 11 -14 1 -20 -7 -4 -9 -11 -6 -14 13 -13 28 6 28 34
0 36 -37 72 -50 51 -6 -8 -10 -20 -10 -27 0 -16 -61 -83 -77 -83 -24 0 -13 29
17 45 31 16 40 34 18 36 -7 0 -3 5 10 11 24 12 29 33 10 42 -10 5 -10 7 0 12
14 7 16 43 2 64 -8 12 -10 9 -10 -13 0 -35 -13 -60 -57 -111 -23 -27 -33 -50
-33 -72 0 -28 -9 -40 -57 -80 -32 -25 -67 -58 -78 -73 -11 -15 -27 -25 -37
-23 -9 2 -22 -6 -28 -18 -13 -24 -4 -43 9 -21 14 22 31 3 31 -35 0 -32 14 -59
67 -133 18 -24 17 -24 -8 -18 -18 5 -32 1 -47 -14 -26 -24 -27 -32 -6 -53 20
-21 23 -20 17 4 -4 16 0 20 17 20 19 0 21 -4 15 -28 -7 -32 14 -58 40 -49 21
9 27 -7 14 -40 -16 -42 -49 -73 -79 -73 -27 0 -70 36 -70 59 0 19 -38 69 -58
75 -9 3 -31 30 -49 59 -17 29 -40 60 -51 70 -19 17 -19 17 -24 -31 -6 -64 -54
-165 -106 -223 -35 -39 -127 -109 -143 -109 -8 0 2 70 10 70 3 0 14 7 24 14
16 12 17 19 7 56 -10 38 -9 44 11 66 24 26 19 45 -6 24 -13 -11 -15 -8 -15 23
0 41 14 55 37 35 14 -11 15 -10 9 10 -10 31 16 39 56 15 25 -15 33 -26 33 -48
0 -15 5 -30 11 -32 21 -7 24 27 4 62 -11 19 -17 42 -14 50 5 11 2 13 -11 9
-11 -5 -15 -2 -13 7 1 8 -2 15 -7 16 -6 1 -9 -7 -8 -18 2 -10 -2 -19 -7 -19
-6 0 -10 12 -10 26 l0 27 -25 -27 c-32 -34 -38 -33 -17 4 20 36 75 58 97 40
18 -15 19 -9 3 25 -10 23 -10 28 5 37 10 5 15 14 11 19 -7 12 -36 -16 -47 -43
-3 -10 -11 -18 -16 -18 -15 0 -1 63 16 73 14 9 18 37 4 37 -9 0 -29 -20 -30
-32 -1 -4 -4 -15 -8 -24 -6 -15 -7 -15 -20 1 -7 10 -16 15 -20 12 -3 -4 4 -19
18 -33 23 -25 23 -26 6 -39 -11 -8 -26 -11 -34 -8 -11 5 -14 1 -9 -13 3 -10 1
-26 -4 -34 -19 -30 -23 20 -5 60 11 25 15 50 12 70 -6 26 -3 32 18 40 14 5 25
14 25 20 0 16 -30 12 -36 -5 -8 -19 -24 -20 -24 -1 0 8 -7 16 -15 20 -10 4
-15 -1 -15 -16 0 -22 -15 -16 -15 5 -1 29 25 37 114 37 91 0 91 0 91 26 0 14
4 23 9 19 6 -3 8 -14 6 -25 -3 -16 2 -20 21 -20 21 0 24 -5 24 -35 0 -24 6
-37 21 -45 12 -7 18 -18 15 -26 -3 -8 -1 -14 3 -14 12 0 21 26 21 56 0 17 8
27 24 34 14 5 30 18 36 30 9 18 8 20 -15 20 -14 0 -25 3 -25 8 1 11 59 72 70
72 5 0 17 14 25 31 16 29 15 30 -2 25 -16 -5 -18 1 -18 64 0 39 4 70 8 70 5 0
7 10 5 23 -2 13 -16 29 -38 39 -20 10 -28 18 -17 18 9 0 17 4 17 10 0 16 -39
32 -62 24 -12 -3 -18 -2 -15 3 10 15 -82 93 -108 93 -6 0 -15 -4 -20 -9z m66
-64 c4 -15 6 -27 4 -27 -10 0 -75 31 -75 36 0 3 12 4 28 0 15 -3 21 -3 14 0
-15 7 -5 27 11 21 6 -2 14 -15 18 -30z m-50 -27 c13 -10 19 -19 12 -20 -6 0
-15 5 -18 10 -3 6 -14 10 -23 10 -13 0 -12 -3 6 -16 21 -15 31 -54 13 -54 -5
0 -8 8 -7 17 0 12 -7 19 -21 21 -26 4 -27 6 -13 33 13 24 22 24 51 -1z m-96
-19 c3 -5 1 -12 -5 -16 -5 -3 -10 1 -10 9 0 18 6 21 15 7z m235 -21 c0 -5 -4
-10 -10 -10 -5 0 -10 5 -10 10 0 6 5 10 10 10 6 0 10 -4 10 -10z m-305 -262
c-8 -21 10 -39 46 -48 33 -8 33 -8 6 -9 -38 -1 -67 16 -67 39 0 37 -58 14 -64
-25 -4 -30 -49 -39 -92 -19 -36 17 -37 17 -54 -7 -10 -13 -22 -20 -26 -16 -10
10 29 61 50 65 10 2 24 -6 32 -17 15 -21 64 -29 64 -11 0 23 50 60 79 60 20 0
29 -4 26 -12z m-75 -134 c0 -8 -4 -12 -10 -9 -5 3 -10 10 -10 16 0 5 5 9 10 9
6 0 10 -7 10 -16z m-47 -60 c-6 -17 -20 -18 -26 -1 -8 22 4 39 19 27 7 -7 10
-18 7 -26z m72 -41 c-3 -12 0 -23 8 -26 8 -3 6 -7 -5 -12 -17 -7 -16 -9 3 -36
19 -27 20 -41 17 -168 -1 -77 -6 -143 -11 -147 -4 -4 -16 1 -27 12 -16 16 -18
25 -10 59 23 101 15 225 -11 184 -5 -8 -9 -9 -9 -4 0 16 -90 16 -97 -1 -6 -17
-46 -19 -41 -1 3 6 14 16 26 22 28 13 28 19 -3 35 -14 7 -25 17 -25 22 0 13
16 9 30 -7 7 -8 17 -15 23 -15 6 0 19 -7 29 -17 23 -20 33 -12 18 16 -9 17 -8
21 5 21 8 0 14 -3 14 -7 -4 -24 3 -35 17 -29 9 4 23 1 30 -5 11 -9 14 -8 14 5
0 9 -7 16 -15 16 -8 0 -15 6 -15 14 0 19 -62 45 -68 28 -7 -23 -19 -12 -19 18
0 17 4 30 9 30 4 0 8 -4 8 -10 0 -5 6 -7 13 -4 8 3 20 -2 27 -11 16 -19 36
-19 44 1 9 24 -3 37 -22 22 -13 -11 -14 -11 -10 2 3 8 13 14 22 14 20 -2 21
10 1 26 -8 7 -12 17 -9 22 10 16 45 -45 39 -69z m55 46 c0 -18 -2 -19 -15 -9
-8 7 -15 9 -15 6 0 -4 -5 -4 -11 0 -8 4 -7 9 2 15 24 15 39 10 39 -12z m-10
-45 c0 -8 -4 -14 -10 -14 -5 0 -10 9 -10 21 0 11 5 17 10 14 6 -3 10 -13 10
-21z m-202 -17 c2 -10 -3 -17 -12 -17 -10 0 -16 9 -16 21 0 24 23 21 28 -4z
m-38 -38 c0 -5 -7 -9 -15 -9 -15 0 -20 12 -9 23 8 8 24 -1 24 -14z m-498 -81
c-17 -17 -15 -28 5 -28 12 0 14 -3 6 -11 -8 -8 -17 -8 -33 1 l-22 12 23 24
c12 13 25 22 28 19 2 -3 -1 -11 -7 -17z m588 -19 c0 -11 -4 -17 -10 -14 -5 3
-10 13 -10 21 0 8 5 14 10 14 6 0 10 -9 10 -21z m65 -9 c4 -6 1 -18 -6 -26
-11 -14 -13 -14 -21 0 -15 26 12 51 27 26z m15 -70 c0 -5 -4 -10 -9 -10 -6 0
-13 5 -16 10 -3 6 1 10 9 10 9 0 16 -4 16 -10z m440 -135 c0 -14 -6 -41 -14
-60 -8 -19 -11 -37 -7 -40 5 -2 11 -25 14 -51 2 -26 11 -50 18 -55 7 -4 34 -5
60 -2 28 3 54 1 65 -6 16 -10 14 -11 -13 -6 -17 4 -49 2 -69 -4 -48 -13 -72 5
-80 61 -8 49 -27 44 -35 -8 -6 -36 -6 -37 -8 -7 0 17 10 55 24 85 30 64 32
107 5 141 -31 39 -23 46 10 9 17 -18 30 -44 30 -57z m-555 -59 c17 0 39 4 50
8 20 8 20 7 1 -8 -29 -23 -126 -18 -126 6 0 5 9 6 23 1 12 -4 36 -7 52 -7z
m-317 -51 c-3 -3 -9 2 -12 12 -6 14 -5 15 5 6 7 -7 10 -15 7 -18z m45 1 c-10
-13 -20 -20 -21 -15 -5 12 17 39 30 39 5 0 1 -11 -9 -24z m1058 -167 c-11 -64
-26 -129 -34 -146 -17 -32 -47 -61 -47 -45 0 5 7 15 14 22 20 16 43 91 51 165
4 33 9 71 12 85 6 22 5 24 -10 11 -22 -18 -22 -3 0 21 29 33 33 5 14 -113z
m-888 95 c-4 -10 1 -22 12 -30 17 -13 16 -16 -10 -69 -16 -30 -32 -55 -37 -55
-13 0 -10 10 17 55 22 38 23 44 10 63 -15 20 -11 52 6 52 4 0 6 -7 2 -16z"/>
<path d="M2176 2056 l-40 -34 26 -30 c29 -35 45 -32 22 3 -19 29 -1 44 25 21
26 -24 35 -19 17 8 -11 18 -12 27 -5 32 7 4 16 -1 21 -10 5 -9 16 -16 24 -16
11 0 10 7 -8 30 -12 17 -27 30 -32 30 -6 -1 -29 -16 -50 -34z"/>
<path d="M323 2034 c-6 -16 58 -115 70 -107 4 2 5 12 3 21 -7 22 9 47 28 47
36 0 13 21 -39 37 -48 14 -57 14 -62 2z m67 -33 c0 -16 -14 -20 -27 -10 -19
17 -16 28 7 22 11 -3 20 -9 20 -12z"/>
<path d="M1735 2040 c-3 -5 -1 -10 4 -10 6 0 11 5 11 10 0 6 -2 10 -4 10 -3 0
-8 -4 -11 -10z"/>
<path d="M2247 1978 c-26 -17 -47 -34 -47 -39 0 -14 12 -11 45 11 43 29 48 25
20 -16 -45 -66 -27 -89 37 -47 24 15 45 28 47 29 1 2 0 8 -4 14 -4 7 -16 4
-35 -10 -40 -28 -45 -25 -21 14 42 68 24 87 -42 44z"/>
<path d="M266 1949 c-10 -17 -16 -32 -14 -33 1 -2 22 -15 46 -30 47 -29 81
-25 41 4 -20 16 -21 20 -10 34 8 9 11 20 7 24 -4 4 -13 -1 -20 -11 -16 -21
-41 -23 -32 -2 3 8 9 22 12 30 11 27 -11 16 -30 -16z"/>
<path d="M1370 1460 c0 -5 5 -10 10 -10 6 0 10 5 10 10 0 6 -4 10 -10 10 -5 0
-10 -4 -10 -10z"/>
<path d="M1494 1459 c-8 -14 11 -33 25 -25 6 4 11 11 11 16 0 13 -29 20 -36 9z"/>
<path d="M1496 1371 c-4 -5 -2 -12 3 -15 5 -4 12 -2 15 3 4 5 2 12 -3 15 -5 4
-12 2 -15 -3z"/>
<path d="M1400 1300 c0 -5 7 -10 15 -10 8 0 15 5 15 10 0 6 -7 10 -15 10 -8 0
-15 -4 -15 -10z"/>
<path d="M348 683 c-27 -19 -48 -39 -48 -44 0 -13 24 -11 38 3 9 9 17 7 36
-11 20 -19 28 -21 45 -12 12 7 21 19 21 27 0 17 -31 74 -40 73 -3 0 -26 -16
-52 -36z m68 -14 c11 -19 -13 -34 -31 -19 -13 11 -13 15 -3 21 18 12 26 11 34
-2z"/>
<path d="M2235 700 c-4 -6 0 -19 9 -29 23 -25 20 -32 -11 -20 -38 14 -51 -3
-28 -37 17 -26 17 -27 -1 -19 -33 13 -38 11 -88 -43 -45 -48 -48 -55 -38 -77
11 -24 0 -36 -13 -15 -7 12 -45 14 -45 3 0 -5 18 -18 40 -29 52 -29 67 -14 45
41 -15 34 -15 38 2 51 27 20 33 17 33 -15 0 -42 18 -48 45 -15 27 33 24 45 -4
20 -18 -16 -19 -16 -23 24 -3 37 -2 41 17 35 79 -23 93 -15 58 35 -18 26 -21
25 32 4 8 -4 17 0 21 9 7 20 -41 93 -51 77z"/>
<path d="M411 591 c-28 -24 -41 -42 -37 -50 6 -9 13 -8 27 5 15 14 21 15 34 4
14 -12 14 -15 0 -30 -17 -19 -20 -40 -6 -40 5 0 18 11 29 25 11 14 25 25 31
25 5 0 15 9 21 19 8 16 5 26 -16 50 -14 17 -29 31 -32 31 -4 0 -27 -18 -51
-39z m75 -30 c-5 -8 -13 -8 -27 0 -17 8 -18 13 -8 25 11 13 14 13 27 0 8 -8
11 -19 8 -25z"/>
<path d="M512 523 c-7 -3 -20 -19 -28 -35 -13 -26 -14 -35 -3 -55 27 -50 103
-37 122 20 16 48 -40 91 -91 70z m57 -22 c19 -12 6 -57 -20 -71 -45 -25 -68
21 -29 60 22 22 29 24 49 11z"/>
<path d="M615 404 c-24 -89 -13 -99 60 -49 30 21 55 42 55 47 0 17 -26 7 -63
-23 -41 -34 -44 -30 -23 29 12 33 12 43 2 51 -10 9 -17 -3 -31 -55z"/>
<path d="M1897 420 c-31 -25 -35 -63 -11 -98 20 -29 65 -29 100 1 26 23 26 24
9 50 -14 22 -21 25 -36 16 -22 -11 -26 -41 -5 -33 20 8 28 -11 11 -26 -19 -16
-49 -5 -65 25 -16 30 1 57 34 53 13 -2 21 3 21 12 0 23 -29 23 -58 0z"/>
<path d="M711 338 c-19 -33 -27 -56 -21 -62 11 -11 8 -15 48 51 28 47 31 63
11 63 -5 0 -22 -24 -38 -52z"/>
<path d="M756 313 c-19 -39 -24 -59 -17 -66 7 -7 18 5 33 39 l23 49 3 -57 c2
-33 9 -61 17 -68 11 -9 20 0 44 49 20 38 27 62 20 66 -13 8 -12 9 -37 -40
l-21 -40 -1 52 c0 40 -4 55 -18 62 -16 8 -22 2 -46 -46z"/>
<path d="M1785 353 c-16 -8 -31 -17 -33 -18 -8 -6 53 -115 63 -111 11 4 11 10
0 38 -11 28 23 35 42 8 20 -29 40 -12 21 19 -7 11 -16 21 -20 21 -5 0 -8 11
-8 24 0 13 -7 27 -16 30 -19 7 -13 8 -49 -11z m42 -30 c2 -6 -4 -13 -13 -17
-21 -8 -39 15 -21 26 15 9 30 5 34 -9z"/>
<path d="M1710 306 c0 -7 7 -29 15 -48 10 -26 11 -38 3 -46 -22 -22 -39 -12
-58 33 -21 50 -47 63 -35 18 13 -56 29 -78 58 -81 32 -4 67 21 67 48 0 26 -29
90 -40 90 -6 0 -10 -6 -10 -14z"/>
<path d="M891 274 c-26 -33 -27 -66 -2 -88 22 -20 72 -18 79 3 3 10 -3 11 -27
6 -38 -8 -49 11 -31 55 14 35 35 39 50 10 14 -26 30 -26 30 0 0 43 -68 53 -99
14z"/>
<path d="M1017 273 c-5 -8 -37 -113 -37 -120 0 -2 7 -3 15 -3 8 0 19 17 25 43
6 23 13 49 16 59 5 17 -11 34 -19 21z"/>
<path d="M1529 262 c-15 -6 -15 -12 0 -67 18 -64 21 -66 77 -45 17 7 24 17 24
35 0 14 -4 25 -9 25 -5 0 -11 12 -13 28 -2 22 -8 27 -33 29 -16 1 -37 -1 -46
-5z m54 -27 c1 -5 -6 -11 -15 -13 -11 -2 -18 3 -18 13 0 17 30 18 33 0z m22
-44 c3 -6 -3 -15 -14 -20 -27 -15 -31 -14 -31 9 0 21 33 29 45 11z"/>
<path d="M1055 248 c-2 -7 -8 -34 -13 -61 -9 -46 -9 -47 17 -53 14 -3 34 -8
44 -11 11 -3 17 1 17 11 0 10 -9 16 -25 16 -18 0 -25 5 -25 20 0 16 5 19 30
14 36 -8 41 11 5 20 -38 10 -33 37 5 30 35 -7 42 11 8 20 -36 9 -58 7 -63 -6z"/>
<path d="M1444 205 c-3 -25 -10 -45 -14 -45 -4 0 -12 18 -19 40 -10 33 -16 40
-38 40 -24 0 -25 -2 -19 -37 3 -21 6 -50 6 -65 0 -19 5 -28 15 -28 13 0 15 10
10 53 l-5 52 21 -47 c27 -61 46 -62 55 -3 8 55 24 59 24 6 0 -37 13 -61 23
-44 2 5 2 34 0 66 -5 52 -8 57 -29 57 -19 0 -24 -7 -30 -45z"/>
<path d="M1209 190 c-1 -27 -2 -56 -3 -62 -1 -8 15 -14 42 -16 25 -2 42 1 42
7 0 6 -14 11 -31 11 l-31 0 7 55 c5 46 4 55 -9 55 -12 0 -16 -12 -17 -50z"/>
<path d="M1309 236 c-8 -8 3 -126 12 -126 5 0 9 29 9 65 0 57 -6 75 -21 61z"/>
</g>
</svg>
