<svg xmlns="http://www.w3.org/2000/svg" viewBox="0 0 20 20" width="20px"><defs><style>.cls-1{fill:#231f20;}</style></defs><title>Asset 1</title><g id="Layer_2" data-name="Layer 2"><g id="Layer_1-2" data-name="Layer 1"><path class="cls-1" d="M4.82,12.7a1.61,1.61,0,0,0,1,.44c.45,0,.7-.22.7-.49s-.39-.54-.91-.54H5.27L5,11.53l.65-.78a5.34,5.34,0,0,1,.43-.46h0a2.45,2.45,0,0,1-.47,0H4.45v-1h3.1V10l-1,1.15A1.44,1.44,0,0,1,7.74,12.6a1.67,1.67,0,0,1-1.82,1.68,2.33,2.33,0,0,1-1.68-.65Z"/><path class="cls-1" d="M8.46,13.16h1v-2c0-.19,0-.38,0-.38h0A.93.93,0,0,1,9.3,11l-.3.27-.69-.74L9.64,9.28h1v3.88h1.05v1H8.46Z"/><path class="cls-1" d="M15.27,3.46H13.45V2.19a2.19,2.19,0,1,0-4.37,0V3.46H6.85V2.19a2.19,2.19,0,1,0-4.37,0V3.46H.66A.66.66,0,0,0,0,4.12V16.47a.66.66,0,0,0,.66.66H15.27a.66.66,0,0,0,.66-.66V4.12A.66.66,0,0,0,15.27,3.46ZM10.38,2.19a.87.87,0,0,1,1.75,0v3a.87.87,0,0,1-1.75,0Zm-6.6,0a.87.87,0,1,1,1.75,0v3a.87.87,0,0,1-1.75,0ZM14.61,15.81H1.31V7.94h13.3Z"/></g></g></svg>