<svg xmlns="http://www.w3.org/2000/svg" viewBox="0 0 197.39 83.15"><defs><style>.cls-1{fill:#161616;}</style></defs><title>Asset 2</title><g id="Layer_2" data-name="Layer 2"><g id="Layer_1-2" data-name="Layer 1"><g id="Layer_1-3" data-name="Layer 1"><path class="cls-1" d="M77.49,21.34l-6.4,18.5h-3.8l-6.4-18.5h3.4l4.8,14.1,4.8-14.1h3.6Z"/><path class="cls-1" d="M79.79,19.84l2.8-.3H83v20h-3.2Z"/><path class="cls-1" d="M97.49,39.84a4.53,4.53,0,0,1-1.6-.3,4.19,4.19,0,0,1-1.6-1.2,16.29,16.29,0,0,1-1.7,1.1,4.81,4.81,0,0,1-2.2.4,7.61,7.61,0,0,1-2.1-.3,3.38,3.38,0,0,1-1.8-1.3,4.77,4.77,0,0,1-.8-2.9,3.38,3.38,0,0,1,1.1-2.9,5.8,5.8,0,0,1,4-1.1c.8,0,1.7,0,2.9.1v-.7a2.56,2.56,0,0,0-.8-2.1,3.17,3.17,0,0,0-2-.6,7.47,7.47,0,0,0-2,.3A10.66,10.66,0,0,0,87,29l-.8-2.8a12.8,12.8,0,0,1,5.2-1.2,6.09,6.09,0,0,1,3.8,1.1,4.21,4.21,0,0,1,1.6,3.7v5.3a1.75,1.75,0,0,0,.6,1.5,5.23,5.23,0,0,0,1.5.7Zm-3.9-6.1a16.77,16.77,0,0,0-3.5.2,1.36,1.36,0,0,0-1.2,1.5c0,1.2.8,1.8,2,1.8a4.12,4.12,0,0,0,1.7-.4,2.33,2.33,0,0,0,1.1-2.1v-1Z"/><path class="cls-1" d="M111.59,39.84a4.53,4.53,0,0,1-1.6-.3,4.19,4.19,0,0,1-1.6-1.2,16.29,16.29,0,0,1-1.7,1.1,4.81,4.81,0,0,1-2.2.4,7.61,7.61,0,0,1-2.1-.3,3.38,3.38,0,0,1-1.8-1.3,4.77,4.77,0,0,1-.8-2.9,3.38,3.38,0,0,1,1.1-2.9,5.8,5.8,0,0,1,4-1.1c.8,0,1.7,0,2.9.1v-.7a2.56,2.56,0,0,0-.8-2.1,3.17,3.17,0,0,0-2-.6,7.47,7.47,0,0,0-2,.3,10.66,10.66,0,0,0-1.9.7l-.8-2.8a12.8,12.8,0,0,1,5.2-1.2,5.62,5.62,0,0,1,3.7,1.1,4.21,4.21,0,0,1,1.6,3.7v5.3a1.75,1.75,0,0,0,.6,1.5,5.23,5.23,0,0,0,1.5.7Zm-3.9-6.1a16.77,16.77,0,0,0-3.5.2,1.36,1.36,0,0,0-1.2,1.5c0,1.2.8,1.8,2,1.8a4.12,4.12,0,0,0,1.7-.4,2.33,2.33,0,0,0,1.1-2.1v-1Z"/><path class="cls-1" d="M115,25.24h2.7l.3,1.1a8.3,8.3,0,0,1,4.6-1.4,5.4,5.4,0,0,1,3.6,1.2,4.75,4.75,0,0,1,1.6,3.9v9.5h-3.2v-8.6a2.78,2.78,0,0,0-1-2.3,3.51,3.51,0,0,0-2.3-.7,5.61,5.61,0,0,0-3.1.9v10.6H115V25.24Z"/><path class="cls-1" d="M143.39,39.54H141l-.6-1.1a6.37,6.37,0,0,1-3.9,1.4,5.48,5.48,0,0,1-4.6-2.1,7.84,7.84,0,0,1-1.5-4.8,8.25,8.25,0,0,1,2.2-6.1,7.91,7.91,0,0,1,5.5-2,14.77,14.77,0,0,1,2.1.1v-5.3l2.7-.3h.5Zm-3.3-11.3a9.69,9.69,0,0,0-2.3-.3,4.25,4.25,0,0,0-3,1.1,4.68,4.68,0,0,0-1.1,3.3,5.07,5.07,0,0,0,.9,3,3.12,3.12,0,0,0,2.6,1.4,5,5,0,0,0,2.9-.9v-7.6Z"/><path class="cls-1" d="M157.49,35.84v3.1a15.87,15.87,0,0,1-2,.7,15,15,0,0,1-2,.2,7.43,7.43,0,0,1-5.2-1.9,7.07,7.07,0,0,1-2.2-5.6,7.65,7.65,0,0,1,2-5.5,5.91,5.91,0,0,1,4.4-1.9,9.54,9.54,0,0,1,2.1.3,5.14,5.14,0,0,1,2.5,1.8,7.45,7.45,0,0,1,1.2,4.4v2.2h-8.7a3.67,3.67,0,0,0,1.6,2.4,4.84,4.84,0,0,0,2.6.7,7.68,7.68,0,0,0,3.6-.9Zm-2.2-4.8a3.5,3.5,0,0,0-.9-2.3,2.41,2.41,0,0,0-1.8-.7,2.81,2.81,0,0,0-1.9.7,3.63,3.63,0,0,0-1.2,2.3Z"/><path class="cls-1" d="M169.09,28.74a4.42,4.42,0,0,0-2.4-.7,4.56,4.56,0,0,0-2.9,1.1v10.5h-3.2V25.24h2.7l.3,1.2a5.89,5.89,0,0,1,3.7-1.5,8.64,8.64,0,0,1,1.5.1,5.73,5.73,0,0,1,1.4.4Z"/><path class="cls-1" d="M181.49,35.84v3.1a15.87,15.87,0,0,1-2,.7,15,15,0,0,1-2,.2,7.43,7.43,0,0,1-5.2-1.9,7.07,7.07,0,0,1-2.2-5.6,7.65,7.65,0,0,1,2-5.5,5.91,5.91,0,0,1,4.4-1.9,9.54,9.54,0,0,1,2.1.3,5.14,5.14,0,0,1,2.5,1.8,7.45,7.45,0,0,1,1.2,4.4v2.2h-8.7a3.67,3.67,0,0,0,1.6,2.4,4.84,4.84,0,0,0,2.6.7,7.68,7.68,0,0,0,3.6-.9Zm-2.2-4.8a3.5,3.5,0,0,0-.9-2.3,2.41,2.41,0,0,0-1.8-.7,2.81,2.81,0,0,0-1.9.7,3.63,3.63,0,0,0-1.2,2.3Z"/><path class="cls-1" d="M184.59,25.24h2.7l.3,1.1a8.3,8.3,0,0,1,4.6-1.4,5.4,5.4,0,0,1,3.6,1.2,4.75,4.75,0,0,1,1.6,3.9v9.5h-3.2v-8.6a2.78,2.78,0,0,0-1-2.3,3.51,3.51,0,0,0-2.3-.7,5.61,5.61,0,0,0-3.1.9v10.6h-3.2V25.24Z"/><path class="cls-1" d="M72.59,52.24l-2.8,8.2h-1.6l-2.8-8.2h1.3l2.4,6.9,2.4-6.9Z"/><path class="cls-1" d="M79.79,56.64h-5.1a3.4,3.4,0,0,0,.9,2.1,2.41,2.41,0,0,0,1.8.7,4.56,4.56,0,0,0,2.2-.6h0v1.1a5.25,5.25,0,0,1-2.3.6,3.78,3.78,0,0,1-2.7-1,4.52,4.52,0,0,1-1.1-3.3,5,5,0,0,1,.8-2.9,3.3,3.3,0,0,1,2.7-1.2,2.44,2.44,0,0,1,1.8.6,2.22,2.22,0,0,1,.8,1.3,8.75,8.75,0,0,1,.2,1.6Zm-1.2-1.1a3.81,3.81,0,0,0-.3-1.6,1.33,1.33,0,0,0-1.3-.7,1.8,1.8,0,0,0-1.5.7,2.94,2.94,0,0,0-.7,1.7h3.8Z"/><path class="cls-1" d="M82,52.24h.8l.3.9a2.57,2.57,0,0,1,2-1.1,2,2,0,0,1,.7.1,1.85,1.85,0,0,1,.7.2l-.4,1.1a4.51,4.51,0,0,0-1.1-.3,2.17,2.17,0,0,0-1.7,1.1v6.1h-1.2v-8.1Z"/><path class="cls-1" d="M87.89,49.14l1.1-.2h.1v3.8a3.45,3.45,0,0,1,4.7.5,4.91,4.91,0,0,1,1,3,4.36,4.36,0,0,1-1,3,3.91,3.91,0,0,1-3.1,1.3,7.16,7.16,0,0,1-2.7-.6V49.14Zm1.2,10a4.53,4.53,0,0,0,1.6.3,2.52,2.52,0,0,0,2-.9,3.65,3.65,0,0,0,.8-2.4,3.7,3.7,0,0,0-.6-2.1,2.32,2.32,0,0,0-1.9-.9,2.2,2.2,0,0,0-1.9.9Z"/><path class="cls-1" d="M102.29,56.64h-5.1a3.4,3.4,0,0,0,.9,2.1,2.41,2.41,0,0,0,1.8.7,4.56,4.56,0,0,0,2.2-.6h0v1.1a5.25,5.25,0,0,1-2.3.6,3.78,3.78,0,0,1-2.7-1,4.52,4.52,0,0,1-1.1-3.3,5,5,0,0,1,.8-2.9,3.3,3.3,0,0,1,2.7-1.2,2.44,2.44,0,0,1,1.8.6,2.22,2.22,0,0,1,.8,1.3,8.75,8.75,0,0,1,.2,1.6v1Zm-1.2-1.1a3.81,3.81,0,0,0-.3-1.6,1.33,1.33,0,0,0-1.3-.7,1.8,1.8,0,0,0-1.5.7,2.94,2.94,0,0,0-.7,1.7h3.8Z"/><path class="cls-1" d="M109.69,56.64h-5.1a3.4,3.4,0,0,0,.9,2.1,2.41,2.41,0,0,0,1.8.7,4.56,4.56,0,0,0,2.2-.6h0v1.1a5.25,5.25,0,0,1-2.3.6,3.78,3.78,0,0,1-2.7-1,4.52,4.52,0,0,1-1.1-3.3,5,5,0,0,1,.8-2.9,3.3,3.3,0,0,1,2.7-1.2,2.44,2.44,0,0,1,1.8.6,2.22,2.22,0,0,1,.8,1.3,8.75,8.75,0,0,1,.2,1.6v1Zm-1.1-1.1a3.81,3.81,0,0,0-.3-1.6,1.33,1.33,0,0,0-1.3-.7,1.8,1.8,0,0,0-1.5.7,2.94,2.94,0,0,0-.7,1.7h3.8Z"/><path class="cls-1" d="M111.49,49.14l1.1-.2h.1v11.4h-1.2V49.14Z"/><path class="cls-1" d="M121.39,60.34h-.8l-.3-.7a3.64,3.64,0,0,1-2.3.9,3.32,3.32,0,0,1-2.6-1.3,5.22,5.22,0,0,1-1-3.1,4,4,0,0,1,1-2.9,4.21,4.21,0,0,1,3.1-1.2,7.72,7.72,0,0,1,1.5.2v-3.1l1.1-.2h.1v11.4Zm-1.2-6.8a4.53,4.53,0,0,0-1.6-.3,2.79,2.79,0,0,0-2,.8,3.2,3.2,0,0,0-.8,2.3,4,4,0,0,0,.6,2.2,2.15,2.15,0,0,0,1.9,1,2.2,2.2,0,0,0,1.9-.9v-5.1Z"/><path class="cls-1" d="M124,49.94a.86.86,0,0,1,.3-.6,1.07,1.07,0,0,1,.6-.2,1.42,1.42,0,0,1,.6.2.85.85,0,1,1-1.2,1.2A.6.6,0,0,1,124,49.94Zm.2,2.3h1.2v8.2h-1.2Z"/><path class="cls-1" d="M128.19,52.24h.8l.2.8a6.66,6.66,0,0,1,1.2-.6,3.08,3.08,0,0,1,1.3-.3,2.72,2.72,0,0,1,2,.7,3.32,3.32,0,0,1,.9,2.4v5.2h-1.2v-5.2a2.17,2.17,0,0,0-.5-1.6,1.84,1.84,0,0,0-1.3-.4,2,2,0,0,0-1.1.3,3.13,3.13,0,0,0-1,.5v6.4h-1.2v-8.2Z"/><path class="cls-1" d="M140.19,58.64a4.37,4.37,0,0,1,2.5.7,2.09,2.09,0,0,1,.8,1.6,2.61,2.61,0,0,1-1.3,2.2,4.76,4.76,0,0,1-2.9.9,3.11,3.11,0,0,1-2.2-.8,2.5,2.5,0,0,1-.8-1.8,3.41,3.41,0,0,1,1-2.1,1,1,0,0,1-.5-.6,1.85,1.85,0,0,1-.2-.7,2.38,2.38,0,0,1,.6-1.4,1.93,1.93,0,0,1-.5-.9,3.59,3.59,0,0,1-.2-1.1,2.41,2.41,0,0,1,.8-1.9,3.11,3.11,0,0,1,2.2-.8,2.93,2.93,0,0,1,1.6.4,2.38,2.38,0,0,1,1.1-.6,4.4,4.4,0,0,1,1-.2l.4,1a5.85,5.85,0,0,0-1.5.6,2.69,2.69,0,0,1,.5,1.5,2.79,2.79,0,0,1-.8,2,3.17,3.17,0,0,1-2.2.9,2.41,2.41,0,0,1-1.5-.4,1.08,1.08,0,0,0-.3.7c0,.4.4.7,1,.7h1.4Zm-2,1.1a2.84,2.84,0,0,0-.7,1.7,1.59,1.59,0,0,0,.4,1.2,2.07,2.07,0,0,0,1.5.5,3.22,3.22,0,0,0,2-.7,1.87,1.87,0,0,0,.8-1.4,1.17,1.17,0,0,0-.9-1.1,7.5,7.5,0,0,0-2.2-.2Zm1.3-6.6a2,2,0,0,0-1.4.5,1.66,1.66,0,0,0-.5,1.2,2.08,2.08,0,0,0,.5,1.2,2.21,2.21,0,0,0,2.8,0,1.61,1.61,0,0,0,.5-1.1,2.08,2.08,0,0,0-.5-1.2A1.82,1.82,0,0,0,139.49,53.14Z"/><path class="cls-1" d="M160.59,52.24l-2.6,8.2h-1.5l-1.8-6.2-1.8,6.2h-1.5l-2.6-8.2H150l2.2,6.8,2-6.8h1.1l2,6.8,2.2-6.8Z"/><path class="cls-1" d="M167.79,56.64h-5.1a3.4,3.4,0,0,0,.9,2.1,2.41,2.41,0,0,0,1.8.7,4.56,4.56,0,0,0,2.2-.6h0v1.1a5.25,5.25,0,0,1-2.3.6,3.78,3.78,0,0,1-2.7-1,4.52,4.52,0,0,1-1.1-3.3,5,5,0,0,1,.8-2.9,3.3,3.3,0,0,1,2.7-1.2,2.44,2.44,0,0,1,1.8.6,2.22,2.22,0,0,1,.8,1.3,8.75,8.75,0,0,1,.2,1.6v1Zm-1.2-1.1a3.81,3.81,0,0,0-.3-1.6,1.33,1.33,0,0,0-1.3-.7,1.8,1.8,0,0,0-1.5.7,2.94,2.94,0,0,0-.7,1.7h3.8Z"/><path class="cls-1" d="M169.89,52.24h.8l.3.9a2.57,2.57,0,0,1,2-1.1,2,2,0,0,1,.7.1,1.85,1.85,0,0,1,.7.2l-.4,1.1a4.51,4.51,0,0,0-1.1-.3,2.17,2.17,0,0,0-1.7,1.1v6.1H170v-8.1Z"/><path class="cls-1" d="M181.59,60.54a2.63,2.63,0,0,1-1.4-.7,9.27,9.27,0,0,1-1.4-1.4,11,11,0,0,1-1.1-1.4,2.18,2.18,0,0,0-.4-.5c-.1-.1-.1-.2-.2-.3v4.1h-1.2V49.24L177,49h.1v7.1l3.2-3.9h1.6l-3.3,3.9a2.24,2.24,0,0,0,.7,1,18.48,18.48,0,0,0,1.4,1.4,4.64,4.64,0,0,0,1.4.9Z"/><path class="cls-1" d="M182.59,52.24h.9v-1.5l1.1-.2h.1v1.7H187v1.1h-2.2v4a3.41,3.41,0,0,0,.4,1.6,1.39,1.39,0,0,0,1,.5,3,3,0,0,0,1.5-.5L188,60a5.34,5.34,0,0,1-2,.5,2.41,2.41,0,0,1-1.8-.7,3.29,3.29,0,0,1-.7-2.4v-4h-.9Z"/><rect class="cls-1" x="50.88" y="-2.27" width="0.4" height="87.7" transform="translate(-10.67 18.66) rotate(-18.78)"/><path class="cls-1" d="M36.89,41.44c-2-1.6-3,0-4.3-.1-1.1-.1-2.1-1.8-2.9-1.4-1.6.8.6,3.7,1.6,4.3s2,1,2.2,1.1a3.3,3.3,0,0,1,2,2.9,6.6,6.6,0,0,1-.1,1.4c-.6,2.5-5,4.8-7.5,3a5.43,5.43,0,0,1-2.6-3.7c-.7-3.3-3-5.7-3.8-8.9-.5-1.9-.8-4-1.3-6s-1-4-1.5-5.9a49.15,49.15,0,0,0-1.8-5.8c-2.4-6.3-3.5-5.8-3.5-5.8s.9,1.7,4,17.1a92.6,92.6,0,0,0,2.1,9.6,30.26,30.26,0,0,0,1.2,3.2c1,2.2,3.7,5.5,3.8,8.5.1,1.7.3,3.2.3,4.5a15.07,15.07,0,0,0,.4,2.6c.7,1.8,5.9,7.7,11.5,7.7v-4.5c-5.5,0-10.8-3.1-10.9-3.4a10.86,10.86,0,0,1,.7-3.2,5.31,5.31,0,0,1,4.5-3.7c2.7-.2,4.3.6,5.7.6Z"/><path class="cls-1" d="M12.89,25.24c-.2,3.4-5.4,7.9-7,10.9a18.61,18.61,0,0,0-2,5.4,13.9,13.9,0,0,0,1.2,8.8c1.7,4.1-.2,5.6,1.1,4.8,1.7-1.4,1.4-4.5,1.3-6.5a31.21,31.21,0,0,1,0-5.3c.5-3.6,2.6-7.4,4.5-10.1a9.58,9.58,0,0,0,.9-8"/><path class="cls-1" d="M13.89,34.74s.6,2.7-1.8,9.5c-6.1,17.9,5.6,19.5,8.9,23.7,0,0,1.3-1.8-4-7.6-1.9-2.1-3.7-6.8-2.2-13.5,2.3-9.7-.9-12.1-.9-12.1"/><path class="cls-1" d="M2.29,23a7.24,7.24,0,0,1-.3-2.8c.3-4.2,4.1-5.9,5-6.5,0,0,1.7-1.2,1.9-2.4,0,0,1.8,4.4-2.3,6.9A12.38,12.38,0,0,0,2.29,23"/><path class="cls-1" d="M11.89,18.94c.2.4,1.8,2.7-4.7,8.1s-4.4,9.1-4.4,9.1-6.9-3.8,1-10.5,6.3-8,6.3-8a2.38,2.38,0,0,1,1.8,1.3"/><path class="cls-1" d="M20.29,21c1.1.1,1.8,3.6,4.4,4.4,1.9.6,3.9.3,4.4,1.4-.9.5-.2,2,.7,1.7C30.49,26.54,30.89,18.64,20.29,21Zm3.5,1.5c.1-.2.2,0,.5-.2s.6-.8,1.1-.9a1.67,1.67,0,0,1,1.2.1c.2.1.1.6-.1.8s-1.4-.2-1.4.6c0,1.3,1.7,0,2.6,0C28.19,25.94,23.09,25.14,23.79,22.54Z"/></g></g></g></svg>