<svg xmlns="http://www.w3.org/2000/svg" viewBox="0 0 342.33 160.32"><defs><style>.cls-1{fill:#fff;}.cls-2{fill:#a5001d;}</style></defs><title>Asset 2</title><g id="Layer_2" data-name="Layer 2"><g id="pL-logo_pantone-201"><polygon class="cls-1" points="314.33 160.32 0 160.32 58 38.33 342.33 0 314.33 160.32"/><polygon points="180.35 123.16 25.24 129.59 64.05 48.34 214.24 28.27 180.35 123.16"/><polygon class="cls-2" points="309.63 117.77 183.09 123.05 216.76 27.96 329.12 12.82 309.63 117.77"/><path class="cls-1" d="M71.74,69.78a13.25,13.25,0,0,1,1.63-3.67c1.66-2.86,3.46-4.27,5.45-4.27,2.26,0,3.52,2,3.51,5.45,0,6.34-3.62,11.33-8.14,11.32A5.93,5.93,0,0,1,71.54,78l-.26-.17h0l-.37,6.6c0,.37-.2.55-.61.55H69c-.41,0-.55-.15-.55-.52v0l1.2-21.69c0-.4.2-.55.64-.55h1.27c.41,0,.55.12.58.49l0,.06-.37,7.2Zm-.4,6.62a6.55,6.55,0,0,0,2.54.56c3.47,0,5.91-3.91,5.93-9.5,0-2.34-.48-3.45-1.55-3.45-.9,0-1.85.75-3,2.34-2.47,3.58-4,7.34-4,10Z"/><path class="cls-1" d="M93.81,61.89c1.19,0,1.76.3,1.76.87v.06l-.06,1.65a.4.4,0,0,1-.41.43.86.86,0,0,1-.35-.09l-.4-.17a2.64,2.64,0,0,0-1-.24c-1.21,0-2.09,1-3.31,3.78A25.42,25.42,0,0,0,87.81,76l-.09,1.71c0,.4-.2.58-.64.58h-1.3c-.41,0-.58-.14-.58-.52v-.06L86,62.79c0-.43.2-.61.64-.61H88c.4,0,.58.18.58.52v.09l-.37,6.37C89.41,64.16,91.18,61.88,93.81,61.89Z"/><path class="cls-1" d="M103.1,61.92a4.9,4.9,0,0,1,4.1,1.84c1.21,1.39,1.67,3,1.66,5.56,0,5.67-2.89,9.54-7.06,9.52C98.22,78.83,96,76,96,71.45c0-.35,0-.72,0-1.1C96.55,65.11,99.2,61.91,103.1,61.92Zm-4.54,9.51c0,3.7,1.17,5.59,3.51,5.6,2.63,0,4.26-2.88,4.28-7.51,0-3.73-1.14-5.59-3.45-5.6-2.49,0-4,2.27-4.3,6.53C98.56,70.76,98.56,71.11,98.56,71.42Z"/><path class="cls-1" d="M116.77,75.76c.2-.64.44-1.33.67-1.94l4.46-11.07c.15-.35.26-.46.55-.46H124a.37.37,0,0,1,.4.35.56.56,0,0,1-.09.29L117.78,78c-.2.43-.35.55-.78.55h-1.42c-.49,0-.67-.12-.78-.55l-4.21-15.2a.26.26,0,0,1,0-.14.41.41,0,0,1,.46-.4h1.71a.44.44,0,0,1,.46.35l2.74,10.8c.09.37.23.84.31,1.3a12.82,12.82,0,0,1,.28,1.74A6.44,6.44,0,0,1,116.77,75.76Z"/><path class="cls-1" d="M125.5,77.9v-.06l.83-14.93c0-.43.2-.61.64-.61h1.3c.41,0,.58.18.58.52v.09L128,77.85c0,.4-.2.58-.64.58h-1.3C125.68,78.42,125.5,78.28,125.5,77.9Zm2-18.74c-.52,0-.75-.09-1-.35s-.23-.38-.23-1.33.32-1.45.82-1.47l.78-.06h.32a1.29,1.29,0,0,1,1,.32c.2.23.23.44.23,1.22,0,1-.29,1.56-.79,1.59l-1,.06A.79.79,0,0,1,127.47,59.16Z"/><path class="cls-1" d="M136.85,66.86c1.77-3.23,3.66-4.82,5.74-4.82,1.77,0,2.63,1.25,2.62,3.77,0,.2,0,.43,0,.64l-.64,11.45c0,.4-.2.58-.61.58H142.6c-.38,0-.55-.15-.55-.49V77.9l.61-11.17a2,2,0,0,0,0-.41c0-1.3-.28-1.76-1-1.77s-1.88.92-3,2.68c-2.21,3.38-3.38,6.41-3.53,9L135,77.87c0,.4-.2.58-.64.58h-1.3c-.41,0-.58-.18-.58-.55v-.06l.83-14.9c0-.43.2-.61.64-.61h1.3c.4,0,.58.18.58.52v.09l-.4,7.32A11.63,11.63,0,0,1,136.85,66.86Z"/><path class="cls-1" d="M159.43,64.76a.67.67,0,0,1-.32-.09,7.93,7.93,0,0,0-1-.38,7.76,7.76,0,0,0-1.68-.21,4.45,4.45,0,0,0-3.82,1.67A10.5,10.5,0,0,0,150.87,72c0,3.18,1.37,4.81,4.09,4.81a6.87,6.87,0,0,0,3.3-.83c.26-.14.32-.17.44-.17s.29.15.29.38l-.06,1.13c0,.29-.15.46-.61.66a11.54,11.54,0,0,1-4.28.85,6,6,0,0,1-3.84-1.29c-1.3-1.07-1.87-2.7-1.86-5.39,0-6,3.19-10.12,7.76-10.1,1.91,0,3.64.59,3.64,1.23v0l-.06,1.1C159.66,64.64,159.57,64.76,159.43,64.76Z"/><path class="cls-1" d="M161.81,78V78L162.64,63c0-.43.2-.61.64-.61h1.3c.4,0,.58.18.58.52V63L164.33,78c0,.4-.2.58-.64.58h-1.3C162,78.54,161.81,78.39,161.81,78Zm2-18.74c-.52,0-.75-.09-1-.35s-.23-.38-.23-1.33.32-1.45.81-1.47l.78-.05h.32a1.28,1.28,0,0,1,1,.32c.2.23.23.43.23,1.21,0,1-.29,1.56-.79,1.59l-1,.05A.79.79,0,0,1,163.78,59.27Z"/><path class="cls-1" d="M170.75,71.48c0,.17,0,.32,0,.49,0,3.24,1.4,4.92,4.12,4.93a7.18,7.18,0,0,0,3.18-.74l.52-.2a.43.43,0,0,1,.26-.06c.17,0,.26.12.26.38V77.4c0,.32-.17.52-.64.69a12.3,12.3,0,0,1-4.23.82A7.94,7.94,0,0,1,172,78.6c-2.66-.82-3.78-2.79-3.77-6.46,0-5.9,3.24-10,7.9-10,2.49,0,4,1.14,4,3.05a4.44,4.44,0,0,1-2.79,4.13,16.19,16.19,0,0,1-6.49,1.34Zm.59-2.43a11.67,11.67,0,0,0,4.54-1,3,3,0,0,0,1.66-2.54,1.59,1.59,0,0,0-1.76-1.69c-2.26,0-4.17,2.13-4.73,5.25Z"/><path class="cls-1" d="M78.77,106.91c.4,0,.55.15.55.52v.06l0,.7c0,.41-.2.58-.64.58l-9.17,0c-.41,0-.61-.15-.61-.52l0-.06,1-18.14c0-.4.2-.58.67-.58H72c.43,0,.58.14.58.52V90l-1,16.86Z"/><path class="cls-1" d="M81.54,108.25v-.06l.83-14.93c0-.43.2-.61.64-.6h1.3c.41,0,.58.18.58.52v.09l-.83,14.93c0,.41-.2.58-.64.58h-1.3C81.72,108.77,81.54,108.62,81.54,108.25Zm2-18.74c-.52,0-.75-.09-1-.35s-.23-.37-.23-1.33.32-1.45.81-1.47l.78-.05h.32a1.29,1.29,0,0,1,1,.32c.2.23.23.44.23,1.21,0,1-.29,1.56-.79,1.59l-1,.05A.79.79,0,0,1,83.51,89.5Z"/><path class="cls-1" d="M98.29,92.38q2.69,0,2.68,3.48a8.43,8.43,0,0,1,0,.87l-.21,3.79c1.49-5,4.13-8.12,6.85-8.11,1.77,0,2.63,1.22,2.62,3.68,0,.26,0,.49,0,.72l-.61,11.46c0,.4-.2.58-.64.57h-1.36c-.38,0-.52-.15-.52-.52v-.06l.61-11.17c0-.23,0-.44,0-.64,0-1.07-.28-1.54-1-1.54s-1.71.89-2.79,2.65c-.47.78-1,1.59-1.4,2.4a14.31,14.31,0,0,0-2.1,6.56l-.09,1.71c0,.4-.2.58-.61.58H98.33c-.38,0-.52-.15-.52-.52v-.06L98.42,97c0-.12,0-.26,0-.38,0-1.33-.23-1.74-1-1.74s-1.68.8-2.79,2.68c-2.47,4.24-3.29,6.47-3.44,9l-.09,1.65c0,.4-.2.58-.64.58h-1.3c-.41,0-.58-.15-.58-.52v-.06l.83-14.93c0-.43.2-.61.64-.61h1.3c.41,0,.58.15.58.53v.09l-.4,7.38C93,95.49,95.54,92.37,98.29,92.38Z"/><path class="cls-1" d="M116.78,100.26a12.86,12.86,0,0,1,1.54-3.55c1.69-2.86,3.51-4.24,5.51-4.24,2.29,0,3.55,1.89,3.54,5.31a16.86,16.86,0,0,1-1,5.35c-1.34,3.9-4,6.12-7.28,6.11a5.67,5.67,0,0,1-2.51-.62l-.66-.35a1.66,1.66,0,0,1-.26-.18h0l-1,.84c-.23.2-.35.29-.49.29s-.37-.17-.37-.46v0L115,86.88c0-.35.23-.49.64-.49h1.27c.41,0,.58.15.58.46v0l-.74,13.54Zm-.14,6.83a5.87,5.87,0,0,0,2.23.5,4.74,4.74,0,0,0,3.94-2.13,13.62,13.62,0,0,0,2-7.26c0-2.29-.57-3.59-1.58-3.59s-1.83.75-3,2.39c-1.95,2.83-3.58,6.29-3.76,8.15l-.18,1.82v0A1.23,1.23,0,0,0,116.65,107.08Z"/><path class="cls-1" d="M132.7,109.27a2.29,2.29,0,0,1-1.85-.93,3.65,3.65,0,0,1-.54-2.46c0-.26,0-.52,0-.78L131,93.41c0-.44.2-.61.61-.61H133c.38,0,.52.15.52.52v.09l-.61,11.19c0,.18,0,.38,0,.55,0,1.19.23,1.59.89,1.59.93,0,2-.92,3.19-2.74.55-.84,1.08-1.73,1.54-2.6a13.81,13.81,0,0,0,2-6.24l.09-1.74c0-.44.2-.61.61-.61h1.39c.38,0,.52.15.52.52v.09l-.8,14.93a.54.54,0,0,1-.61.58h-1.39c-.38,0-.52-.15-.52-.49v-.09l.4-7.41C138.55,106.08,135.71,109.28,132.7,109.27Z"/><path class="cls-1" d="M155.35,92.56c1.19,0,1.76.29,1.76.87v.06L157,95.14a.4.4,0,0,1-.41.43.88.88,0,0,1-.35-.09l-.4-.18a2.61,2.61,0,0,0-1-.23c-1.21,0-2.09,1-3.31,3.78a25.42,25.42,0,0,0-2.2,7.83l-.09,1.71c0,.4-.2.58-.64.58h-1.3c-.41,0-.58-.15-.58-.52v-.06l.83-14.93c0-.43.2-.61.64-.61h1.3c.4,0,.58.18.58.52v.09l-.37,6.37C150.94,94.84,152.71,92.56,155.35,92.56Z"/><path class="cls-1" d="M167.82,101.95a18,18,0,0,1-3.2,5.57,5,5,0,0,1-3.71,1.84c-2.29,0-3.52-1.95-3.51-5.54,0-6.22,3.62-11.24,8-11.23a5.75,5.75,0,0,1,3,.82l.26.14s0-.06,0-.12c0-.38.12-.52.44-.52h1.24c.38,0,.52.15.52.52v.09L170,109.85c-.18,3.53-3,5.89-7.08,5.88-2.81,0-5.49-.89-5.49-1.78v-.06l.06-1a.39.39,0,0,1,.38-.4,1,1,0,0,1,.35.09,9.21,9.21,0,0,0,4.39,1.26,6.29,6.29,0,0,0,3.56-1,3.44,3.44,0,0,0,1.31-2.92l.46-8.42Zm-1.91-7.68a4.83,4.83,0,0,0-3.91,2,13.67,13.67,0,0,0-2.08,7.28c0,2.34.51,3.56,1.52,3.56,1.36,0,2.67-1.41,4.59-5A23.58,23.58,0,0,0,168.68,95,6.18,6.18,0,0,0,165.9,94.27Z"/><path class="cls-1" d="M271.27,109.69a1.17,1.17,0,0,1,.85.23s-.21.13-.16.15l.08.08c.13,0,.25,0,.39,0,0,.07-.14.4-.15.46s-.23.23-.23.23a2.12,2.12,0,0,0-.08-.31c-.06,0-.19,0-.23,0,0,.16-.11.34-.15.46v.23l.62-.08a2.16,2.16,0,0,1-.85,1.39l-.08.16c-.55.14-.75-.23-1-.39,0,0-.2,0-.23.08a1.66,1.66,0,0,0-.08.31c-.05,0-.25,0-.31,0a2.69,2.69,0,0,1-.39-.93A2.17,2.17,0,0,1,271.27,109.69Z"/><path class="cls-1" d="M258.45,108a1.84,1.84,0,0,1,0,.23C258.72,108.3,258.58,108,258.45,108Z"/><path class="cls-1" d="M260.85,89.69l.15.16a2,2,0,0,1,0,.46c.08,0,.4-.05.46,0s0,.26,0,.31.21.1.23.16a2,2,0,0,1,.46-.08c0,.25.14.53.15.69a3.6,3.6,0,0,1-.38,1.47c-.07.23,0,.39-.08.62l-.31.54a5.18,5.18,0,0,0-.23,1.47c-.2,0,0,.71,0,.77s.35.26.46.39c.41.47.09.28.77.54.05,0,.25.22.31.23s.13-.12.31-.08c0,0,.18.22.23.23.38.1.62,0,.93.15.08,0,.15.27.23.31s.33,0,.46.08.13.33.23.39.44.05.62.16c.44.26.41.7.54,1.31,0,.12.21.47.23.62a2.4,2.4,0,0,1,0,.7l-.15.15c-.09.58,0,1.1-.08,1.47s-.29.73-.31,1a4.19,4.19,0,0,1-.08,1.39c0,.07-.28.16-.31.23-.14.31,0,.56-.16.85-.05.13-.26.33-.31.46-.15.37-.15.6-.31.93a3.33,3.33,0,0,0-.23.31c0,.14.05.33,0,.46a5.74,5.74,0,0,1-1.08,1c-.62.13-.91-.31-1.24-.46s-.38-.06-.62-.15a10.26,10.26,0,0,0-.93-.54,5.23,5.23,0,0,0-.62,0,5.35,5.35,0,0,0-1.54-.15v.15c.28.06.49-.05.62.16s0,.18.08.23a1.57,1.57,0,0,0,.46.08,2.84,2.84,0,0,0,.15.54s.22.12.23.15c.06.29-.1.57-.08.93a4.52,4.52,0,0,0,.16.92s.21.23.23.31c.07.27,0,.46.08.69.25.54,1.79.49,2.39.23.06,0,.24-.28.31-.31.43-.19,1-.14,1.39-.31l.08-.15c.31-.09.55,0,.85-.08.08,0,.23-.21.31-.23.36-.13.61,0,1-.16l.15-.15c.2,0,.17.18.23.31.26-.08.41-.09.62-.16l.08.23c.24.12.52.14.62.39.22.56-.36,1.16-.23,1.7,0,.07.15,0,.23.08a3.19,3.19,0,0,0-.08,1,6.85,6.85,0,0,1-.46.69,6.08,6.08,0,0,1-2.63.77,2.72,2.72,0,0,0-.93,0c-.17.06-.06.18-.15.31s-.2,0-.23.08-.08.29-.15.39a1.25,1.25,0,0,1-1.31.46c-.76-.13-.88-1-1-1.54h-.16c0,.05-.05.31.08.23v.15a6,6,0,0,1-2.63-.23c-.16-.1-.65-.61-.85-.62a8.16,8.16,0,0,0-1.24.7c0,.05,0,.19,0,.23s-.2,0-.23.08,0,.23,0,.31-.35,0-.23-.08c-.17-.08,0,.16,0,.16s-.15.1,0,.08a4.31,4.31,0,0,0,0,.46,3.19,3.19,0,0,0-.16-.38c-.18-.17-.46-.19-.62-.39s0-.22-.08-.31-.27-.14-.31-.23,0-.19,0-.23-.2-.09-.23-.15,0-.25-.08-.39-.2-.1-.23-.16,0-.37-.15-.54-.21-.11-.23-.15a6,6,0,0,1-.15-1,4.26,4.26,0,0,1,1.93-.93,7.61,7.61,0,0,1-.46-2.93,9.05,9.05,0,0,1,.54-1.39c.2-.72,0-.83.54-1.24,0,0,.11-.22.15-.23s.57.17.85.08.37-.47.62-.54a12.65,12.65,0,0,1,1.93-.15c.15,0,.53-.2.7-.23s.37,0,.54-.08c.43-.24.48-1,.62-1.54l.15-.15c0-.22,0-.48,0-.7l.16-.15a4.23,4.23,0,0,0,.23-1.62,2.64,2.64,0,0,0-.46-1.16,3.5,3.5,0,0,0-.39-.39c-1.1-1.09-2.39-1-3.17-2.55,0-.07-.21-.24-.23-.31a5.65,5.65,0,0,1,0-.7,3.44,3.44,0,0,1-.31-.62c-.07-.41.06-.85-.08-1.16a4.23,4.23,0,0,0-.39-.39,2.23,2.23,0,0,0-2.32.46,3.52,3.52,0,0,0,.08,2.47l.31.23c.1.18.06.37.15.54s.24.15.31.23a3.57,3.57,0,0,0,1.39,1.08l.15.23c.22.06.35,0,.54-.08,0,.08.11.14.08.31l-.15.08c-.17.43-.2,1.17-.62,1.31-1.23.41-.93-.69-1.31-.93-.16-.1-.37,0-.54-.08s-.16-.29-.23-.31-.06.12,0,.16.07.22-.08.23a6.17,6.17,0,0,1-1.62-1.16c0-.08,0-.16,0-.23a10.65,10.65,0,0,1-.77-1c-.14-.27-.11-.48-.23-.77s-.34-.47-.39-.7,0-.23,0-.31-.27-.33-.31-.46a5,5,0,0,1,0-1.47,4.23,4.23,0,0,1,.08-1.39,4.15,4.15,0,0,1,2.93-2.08c.07,0,.22.09.39.08,1.09-.07,2.4,0,3.48-.08.13,0,0,.12.23.08.76-.17.67-.62,1.08-.93A2.65,2.65,0,0,1,260.85,89.69Z"/><path class="cls-1" d="M207.17,75.86l.08.16C207.21,75.91,207.31,75.86,207.17,75.86Z"/><path class="cls-1" d="M242.16,55.24"/><path class="cls-1" d="M231.19,49.29s-.37.54.08.39C231.12,49.66,231.31,49.22,231.19,49.29Z"/><path class="cls-1" d="M250.11,38.86l.08.15C250.16,38.91,250.26,38.86,250.11,38.86Z"/><path class="cls-1" d="M237.21,36.78a2.31,2.31,0,0,1,.62.31c.07,0,.1.19.16.23s.35.11.54.23.51.51.77.7c.52.36.72.36,1.08.93l.16.08c.08.38-.12.56-.23.77.08.07.08.25.15.31s.21,0,.23.08a5.27,5.27,0,0,1,.08,1.24s-.15.51-.15.54a3.58,3.58,0,0,0,.08.46c0,.06-.21.09-.23.15s.13.18.08.23-.06.19-.16.39a3.49,3.49,0,0,0-.46,1.08c0,.32.06.69,0,1a2.81,2.81,0,0,0-.23.31,2.42,2.42,0,0,0,0,1c.14,0,0,0,.08.15a4.32,4.32,0,0,0,1.7-.39c.05,0,.16-.2.23-.23s.23,0,.39-.08c.31-.19.61-.65,1-.77a3.62,3.62,0,0,1,1.08-.08l.08-.08a2.57,2.57,0,0,1,1,.15,5.47,5.47,0,0,1,.54,1.08c0,.09-.2.16-.15.39,0,0,.57.75.62.77v.08c.08,0,.15-.05.23,0a1.31,1.31,0,0,0,0,.31,5.33,5.33,0,0,1-1.16.15c-.07,0,0-.18-.23-.15,0,0-.28.22-.31.23-.33.08-.53,0-.85.08a3.94,3.94,0,0,0-.54.15l-.08.15a4.93,4.93,0,0,1-.93,0c0,.08-.15.12-.16.15a1.42,1.42,0,0,0,0,.39,4.8,4.8,0,0,0-.85.08c-.1,0-.24.29-.31.31a9.8,9.8,0,0,1-1.78-.23l-.15-.15c-.13,0-.27.05-.39,0s-.28-.32-.39-.39c-1-.63-1.44-.7-1.78-2a2.29,2.29,0,0,1-.15-1c0-.13.2-.42.23-.54.07-.34,0-.53.08-.85,0-.08.21-.32.23-.39s0-.23,0-.31.27-.24.31-.31.05-.4.15-.62.36-.37.46-.54a3.86,3.86,0,0,0,.16-.46s.12.17.15.23h-.08c-.1.06.08.16.08.16a4.43,4.43,0,0,0,.39-.39c0-.06,0-.27,0-.31s.29,0,.46-.08l.23-.46h.08c0-.11,0-.28,0-.39a6.4,6.4,0,0,0-1.16.31c-.1.05-.13.33-.23.39s-.27,0-.39,0-.31.46-.46.54a3,3,0,0,1-.62.08V41.8c-.28-.14-.26-.34-.46-.54h-.15c-.12,0-.43-.43-.54-.54s0-.25,0-.39c.1-.4.55-.87.46-1.47a2.78,2.78,0,0,0-.31-.54c-.12.07-.12-.18-.15-.23a8.81,8.81,0,0,0,.93-.46c.13-.12,0-.25,0-.31A1.16,1.16,0,0,1,237.21,36.78Z"/><path class="cls-1" d="M268.57,107.84c0,.09-.15.28-.15.31-.1.46.11.14.15.16a1.13,1.13,0,0,1,0-.31s.15-.06.16-.08S268.61,107.73,268.57,107.84Z"/><path class="cls-1" d="M269.58,107a8.21,8.21,0,0,1-.46,1.24,4.51,4.51,0,0,0-.23.77c0,.09-.31.52,0,.31s.71-1.6.93-2.32A1.53,1.53,0,0,0,269.58,107Z"/><path class="cls-1" d="M270.12,95.94c0,.25,0,.35-.08.54l.31.08c0-.09.14-.13.08-.31h-.08A.93.93,0,0,0,270.12,95.94Z"/><path class="cls-1" d="M269,94.86s-.06.22-.08.31a3.45,3.45,0,0,1,.62.23c.07,0,.08.28.15.31.58.26-.37-.84-.39-.85S269,94.9,269,94.86Z"/><path class="cls-1" d="M269.58,81.19s-1,.6-.39.46c.06,0,.25-.21.31-.23s.93-.17.46-.23A1.37,1.37,0,0,0,269.58,81.19Z"/><path class="cls-1" d="M241,78.41c.05,0,.21.22.31.23s.37-.09.16-.16C241.4,78.47,241.14,78.45,241,78.41Z"/><path class="cls-1" d="M257.91,86.37l-.15-.08a2.26,2.26,0,0,1-.08-.54h-.08c-.08-.37,0-.61-.08-.93s-.36-.84-.54-1.31c0,0-.14,0-.15-.08-.1-.22,0-.41-.16-.62s-.31-.21-.39-.31a6.7,6.7,0,0,0-1.08-1.39,14.68,14.68,0,0,0-1.7-.77c-.19-.11-.39-.39-.62-.46s-.35,0-.54-.08-.17-.2-.23-.23a12.65,12.65,0,0,0-1.39-.69c-.32-.13-.53-.1-.85-.23s-.47-.41-.7-.46-.17.09-.39.08-.53-.11-.77-.16c-.44-.08-1-.33-1.39-.39-.2,0-.42,0-.62,0-.45-.1-.92-.45-1.39-.54s-1,0-1.55-.15a6.77,6.77,0,0,1-.85-.39,7.23,7.23,0,0,0-.85-.16l-.15-.15c-.23,0-.45.23-.62.23l-.23-.15a5,5,0,0,1-.93-.15c-.29-.12-.63-.45-.93-.54-.45-.14-.81,0-1.24-.15,0,0-.11-.22-.16-.23s-.32,0-.46,0-.45-.24-.62-.31a1.55,1.55,0,0,0,0-.23c-.16-.1-.37,0-.54-.08v-.15h-.08c-.35-.18-.49-.67-.85-.85h-.08c-.08-.11,0-.23-.08-.39s-.62-.48-.85-.62c0,.06-.22.27-.23.31-.2.43.11.29-.46.15a2.33,2.33,0,0,1,0,.31s.09-.06.12-.11.19,0,.19,0v.15c-.09,0-.19.15-.23.15s-.16-.09-.39-.08c.05.5,0,.93.08,1.47a3.75,3.75,0,0,0,.31.77s.21.1.23.16v.15c.08.08.24.07.31.15s.42.74.46.77.33,0,.46.08l.31.62c.07,0,.24-.05.31,0s-.15.26,0,.39.39.07.54.15.08.19.15.23.3.05.46.16a7,7,0,0,0,.85.62c.21.08.28,0,.39,0s.22.2.31.23c.24.08.37,0,.62.08s.46.14.7.23l.08.15c.3.06.62,0,.93,0,.11,0,.51.21.62.23.51.07,1-.06,1.54,0s1.49.34,2.09.46.82,0,1.31.15c.21.05.54.26.77.31.51.11,1,0,1.47.15.12,0,.34.28.46.31.3.07.62-.06.93,0,0,0,1.11.43,1.16.46s.09.19.16.23.17,0,.23,0c.23.06.54.41.77.46a1.84,1.84,0,0,1,.23,0c.33.14.63.45.93.62s.41.1.62.23a6.77,6.77,0,0,1,1.24,1.7c.14.94-.49.3-.7.16s-.38-.1-.7-.23-.73-.47-1.08-.62a8.79,8.79,0,0,0-3.55-.62,2.67,2.67,0,0,0-.7,0c-.23.07-.16.48-.08.85a2.73,2.73,0,0,0-1.47.7c-.1.13-.05.26-.15.39s-.41.27-.54.46-.08.45-.23.69-.31.13-.38.23-.1.42-.23.62-.28.16-.31.23a5.22,5.22,0,0,0-.15,1.23c0,.13-.21.43-.23.54-.13.62.18.8.08,1.47a.52.52,0,0,0-.08.31c0,.08.2.17.23.23a6.69,6.69,0,0,1,.38.93,7.13,7.13,0,0,1,.31,1.39c0,.14,0,.33,0,.46s.27.23.31.31c.16.29.15.63.31.93s.51.6.7.93c.09.16.05.31.15.46.25.39.71.72,1,1.08.12.15.11.31.23.46s.31.2.39.31.05.3.15.46.53.45.7.7a5.65,5.65,0,0,1,.31.85c.05.11.28.29.31.38a2.78,2.78,0,0,1-.08,1.7s0,.22.08.08c0,.09.06.26-.08.23a3.63,3.63,0,0,0,.08.46s-.15.05-.15.08c-.23.59-.35,1.26-.93,1.47h-.08c.07,0-.09-.09-.15-.08s-.27.2-.54.15c-.07,0-.05-.15-.08-.23a7,7,0,0,0-1.16-.08h-.08c-2.67,0-4.75.29-6.1,1.62-.13.13-.37.23-.46.39s0,.23-.08.31-.2.08-.23.15a7.82,7.82,0,0,0-.31.93,4.36,4.36,0,0,0-.46,1.31,2,2,0,0,0,.23,1,4.68,4.68,0,0,1,.15,1.31c-.11,0-.11.13-.15.23a3,3,0,0,0-1.62-.08c-.08,0,0,.2-.08.23a2.5,2.5,0,0,1-.39.15c0,.22-.09.6-.08.7H237c.1.46.12.65.23,1.08l.15.15c.07.27,0,.56.08.85s.64.36.85.54.09.24.15.31h.16a1,1,0,0,1,.08.15,1,1,0,0,0,.85-.23c.05,0,.28-.1.31-.15.14-.3,0-.77.15-1.08.07-.16.32-.2.39-.31s-.06-.15,0-.31c.13,0,.54.08.54.08.17,0,.38-.06.54,0a1.3,1.3,0,0,0,.15.23c.33.09.32,0,.62,0a1.32,1.32,0,0,0,0,.23c-.15.07-.25,0-.38.08s-.15.3-.23.39-.85.66-.15.93a4.24,4.24,0,0,0,.77-.08c-.12,0,.15.08.16.08a1.13,1.13,0,0,0-.08-.15c.26,0,.31,0,.54-.08a12.64,12.64,0,0,1,3.78-.62c.26.53.52,1,1.47.85l.54-.23c.09-.08.08-.35.15-.46s.22-.12.23-.15-.15-.13-.08-.31.18-.14.23-.23-.21,0-.08-.08.34,0,.54-.08.23-.28.31-.31.08.09.23.08.36-.27.54-.31a1.28,1.28,0,0,1,.46.08,3.29,3.29,0,0,0,.31-.15,4.18,4.18,0,0,1,.62.23,1.18,1.18,0,0,1-.08-1c-.21,0-.22,0-.39.08a3.5,3.5,0,0,0-.08-.46l-.15-.08c0-.19.09-.3.08-.39s-.22-.2-.23-.23,0-.25,0-.39.14-.15.16-.15c.26-.06,1,.1,1.39-.08s.24-.5.39-.85c0-.1.28-.26.31-.39.1-.44-.12-.81-.08-1.16l.15-.15c0-.13,0-.25,0-.39s.33-.51.39-.69,0-.48.08-.77.32-.39.39-.54,0-.22,0-.31l.16-.08c.1-.26.05-.52.15-.77,0,0,.21-.19.23-.23s0-.29.08-.46.37-.44.46-.62,0-.3.15-.46.44-.35.54-.46.25-.45.46-.62.34-.1.39-.23a2.77,2.77,0,0,0,0-.62c-.09-.06-.41-.38-.46-.39-.44-.09-.67.31-.93.39s-.33-.06-.46,0a2.71,2.71,0,0,0-.31.39s0,.2,0,.23a1,1,0,0,0,.31,0l.08.23a3,3,0,0,1-.08.39c0,.08-.26.23-.31.31s-.06.3-.15.46-.18.08-.23.16c-.24.39-.4.69-.62,1.08-.07.13-.26.54-.39.62s0-.05-.08-.08a2.16,2.16,0,0,1,.15-.62c.08-.15.32-.29.39-.46s.23-1-.08-.62c-.19.26-.28.6-.46.85s-.37.31-.46.46-.17.69-.39.77c-.06,0-.18,0-.23,0,.06-.18.49-1.37.08-.77-.08.1,0,.2-.08.31s-.37.44-.46.62c-.2.35-.27.73-.46,1.08-.1.17-.31.28-.39.46s0,.51-.15.77-.44.39-.54.54c-.38.58-.06,1-.15,1.62,0,0-.17.17-.16.23s.37.68.39.7.27,0,.08.08-.24.41-.39.46-.37,0-.54,0-.55.21-.7.23a5,5,0,0,1-.85,0c.14-.05.4-.25.54-.31a1.13,1.13,0,0,1,.31,0v-.15l-1.16.15a3.2,3.2,0,0,1-.62.08c-.28,0-.34-.24-.54-.31s-.28.11-.46.08v-.15c-.63-.16-.55-.07-.77-.62a2,2,0,0,1,.31-.15v-.16c.15-.06.36.16.7.08l.08-.23a1.17,1.17,0,0,0,.31,0c-.28,0-1.12,0-1.39,0s-.44-.22-.54-.23-.55.07-.77,0-.09-.27-.16-.31c-.28-.18-.54-.06-.77-.08a3.14,3.14,0,0,1,.08-.85l.15-.08c.08-.13,0-.25.08-.39s.25-.11.31-.15.14-.3.23-.38a2.76,2.76,0,0,1,2.09-.62l.16.16a3.33,3.33,0,0,0,1.62.08s.14-.23.15-.23c.23-.11.39,0,.54-.15s0-.32.16-.39.29.08.46,0a3,3,0,0,1,.15-.31c.1-.09.73-.48.77-.54s.05-.38.16-.54.4-.29.54-.46a8.1,8.1,0,0,0,.7-1.24v-.15c-.48.09-.19,0-.08-.15a3.85,3.85,0,0,0,.54-2.86c0-.2-.26-.57-.31-.77s0-.45-.08-.69-.68-.53-.85-.85a4.3,4.3,0,0,1-.23-.93s-.22-.17-.23-.23.05-.27,0-.39H250c-.38-.83-.81-1-1.24-1.54-.14-.2-.19-.59-.31-.77s-.31-.19-.39-.31a7.56,7.56,0,0,1-.54-3.63,1.35,1.35,0,0,0,.31-.23v.08a1.07,1.07,0,0,1,.08.39c0,.15-.22.36-.15.62,0,0,.22.19.23.23,0-.12,0-.28.08-.31-.17.11,0-.23,0-.23a4.09,4.09,0,0,1,.54-1c.1-.15.31-.3.39-.46a4.84,4.84,0,0,0,.15-1.31l.15-.23c0-.21,0-.49,0-.7s.28-.32.16-.77a3.37,3.37,0,0,0-.23-.31,4.14,4.14,0,0,1,0-.93c.11,0,.28,0,.39,0s.3.39.54.46.57,0,.85.15a3.15,3.15,0,0,1,.46.46c0,.06,0,.36.08.39.25.17.46-.09.77.31.06.08,0,.22.08.31s.18.09.23.15a4.39,4.39,0,0,0,.85,1.08,2.8,2.8,0,0,0,1.54.39v-.08a3.4,3.4,0,0,0,.31-.46c.11,0,.28,0,.39,0s.12.33.23.39c.33.17.68,0,.92.08,0,0,.13.23.16.23.23.06.29-.09.46-.08a4.46,4.46,0,0,1,.16-.93c.07-.19.35-.38.39-.62A8.25,8.25,0,0,0,257.91,86.37ZM239.69,78.1v-.23C240.14,78.1,240.62,78.18,239.69,78.1Zm2.39.77c-.05,0-.05-.22-.08-.23a4.35,4.35,0,0,1,.7,0c.07,0,.3.21.39.23s.27-.08.39-.08a5.86,5.86,0,0,1,.69.23,1.59,1.59,0,0,1,.39.15c.53.28-1,.12-1.16.08s-.31-.21-.39-.23C242.66,78.92,242.41,79,242.08,78.87Zm2.32,1a10,10,0,0,1-1.7-.08c-.08,0-.17-.2-.23-.23s.06-.21.15-.23a4.63,4.63,0,0,1,1.47.23,2.29,2.29,0,0,1,.62.15A1.49,1.49,0,0,1,245,80C245.51,80.33,244.4,79.88,244.4,79.88Zm8.42,27.65H253a4.53,4.53,0,0,1-.46.77c-.21.11-.1-.13-.15-.16C252.46,108.06,252.72,107.58,252.81,107.53Z"/><path class="cls-1" d="M246.63,63.66c0,.27-.35,1.26-.08,1.47s0-.12.08-.31a3,3,0,0,0,.23-.93,1.42,1.42,0,0,1-.08-.23Z"/><path class="cls-1" d="M254.9,50.45c-.13.07-.78.82-.31.54C254.6,51,255.49,50.13,254.9,50.45Z"/><path class="cls-1" d="M277.61,47.44c0-.29,0-1,0-1.31,0-.11.17-.21.15-.46l-.15-.15c-.17-.64,0-1.39-.23-1.93-.05-.12-.32-.2-.39-.31a8.41,8.41,0,0,1-.39-1c-.23-.65-.23-1.2-.46-1.85-.07-.2-.34-.44-.39-.62s.05-.34,0-.46l-.7-.85c-.09-.06-.17,0-.23-.08s-.09-.37-.23-.46-.44,0-.69-.15-.43-.43-.62-.54-.23,0-.31-.08-.11-.21-.15-.23c-.27-.1-.32.11-.62,0,0,0,0-.22,0-.23a2.57,2.57,0,0,1-.54-.15l-.08-.16a6.72,6.72,0,0,0-.7,0l-.23-.15c-.2,0-.43,0-.62,0s-.31-.22-.39-.23c-1.6-.3-3.5.19-4.94,0-.07.12,0,.17-.08.31h-.15A1.74,1.74,0,0,1,264,36a7.26,7.26,0,0,1-.15-3.09c0-.06.53-.24.62-.31a5.46,5.46,0,0,0,.7-.77c.09-.16,0-.32.15-.46s.38-.19.46-.31,0-.21.08-.39l.16-.08c.1-.34,0-.44-.08-.7s0-.27,0-.39-.17,0-.23-.08-.08-.27-.16-.31a1.07,1.07,0,0,0-1.31.31,10.13,10.13,0,0,1-1.54,1.24c-.09,0-.22,0-.31.08s-.09.2-.16.23c-.29.15-.65.14-.93.31-.11.06-.07.39-.54.31s-.6-.71-.77-1-.35-.36-.39-.54c-.23-1,.49-2.28-1.08-1.78a2,2,0,0,0-.93.85c-.25.94.69,2.73-.77,2.55l-.16-.15c-.35-.09-.79,0-.93-.31s0-.69-.23-1c0-.06-.26-.09-.31-.15s0-.15,0-.23-1.42-1.08-1.62-1.24c.21-.08-.08-.08-.08-.08a1.43,1.43,0,0,1,.15-.23,5.06,5.06,0,0,0-.46-.31c-.16-.09.07.21.08.23.18-.05,0,0,.08.08s0,0,.08.15a1.4,1.4,0,0,1-.39,0,5,5,0,0,1-.39.85c-.21.28-.78.47-.62,1.16,0,0,.2.12.23.15s.16.36.31.54.37.28.46.46c.22.42.17.95.39,1.39.06.14.33.29.39.46.16.5.16,2.39-.16,2.63s-.64,0-1.08.15c-.24.06-.44.41-.69.46s-.54-.11-.85-.08l-.15.15c-.13,0-.26,0-.39,0s-.66.34-.93.39a9.32,9.32,0,0,1-1.16,0c-.12,0-.38.14-.54.15a1.1,1.1,0,0,0-.31-.08c-.19,0-.52.35-.7.39a2.48,2.48,0,0,1-.62-.08,2,2,0,0,0-.7.23v.15c-.1.08-.27.09-.31.23a9.83,9.83,0,0,0,.31,2.86c.12,1,0,1.72.08,2.63a10.5,10.5,0,0,0,.31,1.08,3.6,3.6,0,0,0,.23,1.08c.46.86,2.23.28,3.32.54.17,0,.33.34.46.39s.28,0,.39,0a2.93,2.93,0,0,1,.23-.54c.12-.15.41-.15.54-.31s.13-.54.31-.7.22,0,.31-.08.18-.21.23-.23a1.56,1.56,0,0,1,1.55.15c.21.13.45.23.54.46a3.78,3.78,0,0,1-.23,1.85s-.22,0-.23.08,0,.22,0,.31l-.62.93c-.11.14-.33.19-.46.31s-.09.24-.15.31a3.54,3.54,0,0,1-2.08.39v-.15a2.46,2.46,0,0,1-1.08-1.39c-.09,0-.22,0-.31,0v.08a.73.73,0,0,1-.23.08v.16c-.24,0-.11-.19-.23-.23s-.9-.15-.93-.15c-.62-.05-.59.26-.93.31s-.27-.14-.54-.08c0,0-1.15.68-1.16.7-.22.3-.14.81-.31,1.16l-.31.08a5.66,5.66,0,0,1-.08.93c-.05.18-.27.43-.31.62s.11.31,0,.54c0,.08-.29.17-.31.23a10.61,10.61,0,0,0-.16,1.16c-.06.23-.31.49-.39.69s0,.22,0,.31a4.35,4.35,0,0,1-.39.85c-.12-.08,0-.19,0-.39a22.52,22.52,0,0,1-2.47-.39c-.53,0-1.7,0-2.63,0l.23-.15c.26-.07.43,0,.08-.08v-.15a4.85,4.85,0,0,0-.77,0,7.48,7.48,0,0,0-1.31.54,7.82,7.82,0,0,0-1.47.54c-.19.11-.3.25-.54.39V56c-.23.16-.49.21-.7.39v.15a1.56,1.56,0,0,1-.92.46v-.15s-.19,0-.23,0-.15-.12-.16-.15c-.2-.6.17-.79.46-.93a1.2,1.2,0,0,0-.31,0c0-.16.07-.09-.08-.15,0-.45-.25-.88-.31-1.39,0-.26,0-.59,0-.85s-.27-.44-.31-.62-.11-1.31,0-1.31a1.21,1.21,0,0,1-.08-.54c0-.13.27-.37.31-.54.2-.95.14-1.72.39-2.63a3,3,0,0,1,.23-.62l.15-.08c0-.12,0-.27,0-.39a6.63,6.63,0,0,0,.39-1.85c0-.14-.22-.51-.23-.62s.05-.43,0-.62S232,43.21,232,43s0-.45-.15-.69-.26-.26-.31-.39c-.16-.39-.11-.62-.31-.93s-.54-.52-.7-.77c-.06-.1,0-.21-.08-.31s-.26-.15-.31-.23a12.6,12.6,0,0,1-.7-1.93c0-.08,0-.24,0-.31s-.32-.21-.39-.31c-.18-.29-.19-.6-.38-.85s-.4-.22-.62-.39-.48-.63-.77-.85c-.12-.09-.28-.06-.39-.15s-.13-.33-.23-.39-.23,0-.31,0l-.08-.15c-.23-.09-.38,0-.62-.08S225.21,34,225,34a.57.57,0,0,0-.31.08c-.15,0,0,0-.08-.15a1.85,1.85,0,0,1-.31,0c0-.12.09-.25,0-.46s-.19-.09-.23-.15a2.8,2.8,0,0,0-1.85-.93c0,.19,0,.19.08.31-.19,0-.08,1.23-.08,1.7-.28.13-.54.27-.77.39s-.75.42-1.08.54c-.12,0-.26,0-.39,0-.61.15-.62.84-.62,1.62a3.66,3.66,0,0,1-.46-.15c-.06,0-.09-.21-.15-.23-.58-.21-1.41-.13-1.54.39a2.22,2.22,0,0,0,.31,1.55s.21.1.23.15,0,.33,0,.39c.41-.07.28-.24.54.15,0,.06.21.15.23.23a2.75,2.75,0,0,1-.08.77A10.11,10.11,0,0,0,218.6,42c-.14,0-.05.08-.08.23a3.26,3.26,0,0,1-.46,0v.16c-.43.06-1.1-.36-.93.62l.15.08c.1.16,0,.27.08.46s.3.32.39.46.09.41.23.62h.15v.15h.08c.26.13.4.58.62.77a9.87,9.87,0,0,0,1.16.7c.06,0,.16.26.23.31s.4.1.62.23.29.33.46.39c.52.16,1.64,0,2,.31a2,2,0,0,1,.23.31.85.85,0,0,1-.08.39c-.06.46.1.94,0,1.39,0,.13-.26.34-.31.46-.15.39-.11.74-.23,1.16a16.25,16.25,0,0,0-.54,1.54c-.23,1.25-.16,2.24-.31,3.55,0,.36-.28,1-.31,1.31-.08.93.16,2.13.08,3,0,.23-.26.46-.31.62a2.63,2.63,0,0,0,.23,1.85c.49,1.06,1.82,1.59,3.55,1.39.34,0,.81-.3,1.16-.31s.62.09.7.31a5.22,5.22,0,0,1,0,1.39s-.22.39,0,.39c.14,1,.39,1.5-.46,1.93l-.16.15c-.32.07-.69,0-1,0l-.16.15a3.93,3.93,0,0,1-1.08,0,3.47,3.47,0,0,1-.93.08s-.28-.23-.31-.23-.33.19-.62.15c-.13,0-.71-.35-.92-.39s-.43.06-.62,0-.11-.2-.15-.23c-.32-.2-.66-.21-1-.39-.1-.05-.22-.27-.31-.31s-.45-.06-.69-.15-.33-.27-.46-.31a8.72,8.72,0,0,0-2.78-.08,6.91,6.91,0,0,0-.93,0c-.05,0-.26.21-.31.23-.26.09-.37,0-.62.08-.49.18-1,.89-1.47,1.16-.09.05-.23,0-.31.08s-.29.46-.39.54c-.32.24-.78.29-1.08.54-.07.06-.23.39-.39.46-.5.24-1,0-1.39.23-.11,0-.15.26-.23.31s-.29,0-.46.08-.2.32-.31.38-.47.08-.7.23a5.78,5.78,0,0,0-1.85,3.17,4.71,4.71,0,0,1-.15.93c-.06.11-.28.09-.39.15-.42.24-.76.55-1.23.77a3.24,3.24,0,0,0,0,.77c.15.57,1.44.39,2.08.46a3.31,3.31,0,0,0,.23.77c.07.11.33.18.39.31s-.14.78-.31,1c0,0-.21.11-.23.15a2,2,0,0,0,0,1.08c.06.23.07.43.23.54s2.18.63,2.24.62c.29-.08.29-.67,1.24-.54l1.16.31c.15.08.12.32.23.46s.26.12.39.23.18.37.31.46.18,0,.23,0,.27.24.39.31.14,0,.23,0a12.84,12.84,0,0,0,1-1c.08-.26-.13-.3-.08-.54,0,0,.13-.11.15-.23a6.05,6.05,0,0,0,2.32-.69c.12-.08.25-.42.39-.46H216c.26-.3.31-.76.54-1.08s.79-.7,1.08-1.08.37-.74.62-1.08.47-.4.62-.62c0,0,.07-.23.08-.23.27-.19.45,0,.7-.16v-.15a3.06,3.06,0,0,1,.77-.39c1-.16,2.21.57,2.93.85l.08.15a10.65,10.65,0,0,1,1.31.54c.36.21.64.56,1,.77a15.4,15.4,0,0,0,1.54.62s.06.14.08.16a3.51,3.51,0,0,0,.85.08l.08-.15c.1-.07.21,0,.31-.08s.08-.21.15-.31c.24-.33.66-.54.93-.85.06-.07.09-.25.15-.31s.28-.08.39-.16a9.5,9.5,0,0,0,.7-.69c-.07-.13,0-.26-.08-.39s-.69-.24-.15-.38v-.16c-.06,0-.25,0-.31,0s-.07-.33-.08-.39h.08v-.15s.35,0,.23.08a4.54,4.54,0,0,1,.54,0c.09-.36.41-.82.31-1.31s-.52-.47-.93-.31c-.11,0-.22.26-.31.31s-.41,0-.54.15-.17.58-.31.77-.57.29-.77.46v.15c-.22.12-.46.41-.7.46-.51.1-.84-.17-1.16-.23s-.43.05-.62,0-.55-.6-.7-.69-.38-.05-.54-.16v-.15l-.7-.54c-.45-.23-1.08-.18-1.47-.46-.22-.16-.22-.4-.38-.62s-.54-.33-.85-.54c-.07,0-.17-.27-.23-.31s-.39-.1-.54-.23-.1-.36-.15-.39a9.68,9.68,0,0,0-2.55-.15s0,.22,0,.23a3.53,3.53,0,0,0-1.16.46c-.13.09-.24.39-.39.46s-.37,0-.54.08-.16.27-.23.31-.23,0-.31.08,0,.19,0,.23c-.06.23-.41.54-.46.77,0,.06,0,.17,0,.23a9.81,9.81,0,0,0-.69,1.24c-.08.22,0,.34-.08.54s-.34.43-.39.62.06.27,0,.39-.26.17-.31.23a5,5,0,0,1-1.7,1.31c-.06,0-.16.21-.23.23s-.37,0-.54.08-.16.21-.23.23-.29-.09-.39-.08c-.14-.6,0-.32-.31-.69s-.5-1-1.31-.85c-.11,0-.39.22-.46.23s-.11-.11-.23-.08c.05-.69.14-1.37.62-1.62.25-.13.42,0,.7-.16s.56-.49.85-.62c.69-.3,1.28-.22,1.85-.62a5.75,5.75,0,0,0,1.16-1.08c.13-.18.1-.35.23-.54l.16-.08c.15-.32.1-.57.23-.93,0-.13.25-.39.31-.54s0-.42.16-.62.43-.3.62-.46,0-.19.08-.23.33-.06.54-.15c0,0,.12-.22.15-.23s.26,0,.39,0,.42-.22.54-.23a1.73,1.73,0,0,1,.7.15,7.1,7.1,0,0,1,2.55.46c.05,0,.11.2.15.23s.21,0,.31.08.41.43.62.54a10.86,10.86,0,0,0,1.24.31c.32.11.64.51,1,.62a12.94,12.94,0,0,0,2,.15c.16,0,.55.2.7.23a8.38,8.38,0,0,0,2.63-.16c.09,0,.08-.23.08-.23.35-.13.68,0,1-.16.1,0,.15-.26.23-.31s.23,0,.31-.08,0-.2.08-.23.29,0,.46-.08A3,3,0,0,0,232,69.06c.16-.47.31-1.48,0-1.78-.07-.07-.28-.05-.31-.16s.14-.21.08-.39l-.15-.08a1.18,1.18,0,0,1-.15-.77l.15-.31c.08-.47.06-.71.15-1.16a3.5,3.5,0,0,0,.23-1.62l-.15-.16c-.23-.57-.22-.48-.7-.77-.12-.08-.33-.34-.46-.39a21.2,21.2,0,0,0-3-.15c-.24,0-.94-.28-1.16-.31-.42,0-.52,0-.93,0a16.09,16.09,0,0,1-.16-2.55h-.23c-.14.27-.26.5-.39.77,0,0-.12-.18-.16-.15.12-.88.51-1.34.62-2.16a4.17,4.17,0,0,0-.15-1.31,2.5,2.5,0,0,1,.23-.93c.09-.39,0-.64.15-1s.52-.85.62-1.24c0-.13-.06-.27,0-.39s.32-.2.38-.31.08-.37.16-.54.38-.47.46-.7,0-.36.08-.54.32-.39.39-.62a6.83,6.83,0,0,0,.08-1.62c0,.14.08-.08.08-.08a5.86,5.86,0,0,0-.15-1.31,6,6,0,0,0-1-1.16c-.16-.08-.29,0-.46-.08s-.38-.46-.62-.54c-.54-.19-1.07-.11-1.54-.31-.07,0-.18-.21-.23-.23a6.49,6.49,0,0,1-.77-.31c-.14-.09-.29-.33-.46-.39s-.37,0-.54,0-.25-.27-.31-.31c-.61-.44-.91-.51-.77-1.7a7.58,7.58,0,0,1,.62-2.32c.14-.23.5-.36.69-.54s0-.18.08-.23a5,5,0,0,1,1.16-.77l.31.39c.12.06,0-.09.15-.08.48,0,1.11.05,1.31-.39.1-.22.08-.72.16-1,.21.08.29,0,.46.08s.09.19.15.31a3.8,3.8,0,0,1,.31,2.09c0,.06-.15.48-.15.54a2.85,2.85,0,0,0,.08.54c0,.19,0,.57,0,.54,0,.15,0,.17.08.23s-.12.12-.08.23.2.1.23.15,0,.31.08.39.2,0,.23.08,0,.22,0,.31.21.11.23.15,0,.33.08.46.52.19.7.31.2.3.31.39c.27.2,1,.38,1.16.62s.07.35.16.54.26.33.31.54c.3,1.31-.21,2.89-.38,4-.1.62.09.91,0,1.54l-.16.15a2.15,2.15,0,0,0,.08.93,1.09,1.09,0,0,1,.23,0s0,.25,0,.31l-.31-.15s-.12.22-.15.23c-.73.26-.83-.33-.85-.93a15,15,0,0,1-.08,2.24c-.1.44-.57.6-.46,1.31,0,.18.27.52.31.69a6.77,6.77,0,0,0,.23,1.24c.07.16.31.32.39.46a8.54,8.54,0,0,1,.54,1.31,11.6,11.6,0,0,0,.23,1.24c.14.35.46.67.62,1s0,.42.23.54a2.66,2.66,0,0,0,1.54.08,3.52,3.52,0,0,0,1-.39c.17-.08.19.06.38-.08s.35-.61.46-.7.17,0,.23,0,.24-.28.31-.31c.26-.1.51,0,.77-.08s.26-.31.39-.39.41,0,.7-.15c.13-.05.25-.27.39-.31a4.45,4.45,0,0,1,.69,0c.29,0,.85-.2,1.16-.23a14.68,14.68,0,0,1,3.71.31,2.66,2.66,0,0,0,.46,0s0,.52,0,.46v.15a10.44,10.44,0,0,0,2.08.23c.3-.15.29-.62.46-.93,0-.07.19-.08.23-.15s.06-.35.15-.46.25,0,.31-.08l.46-.85a3.1,3.1,0,0,0,.08-.62h.15c0-.24-.13-.18-.08-.39.11-.48.53-1,.62-1.47,0-.21-.05-.49,0-.7s.38-.5.46-.69,0-.22,0-.31l.15-.15a7.74,7.74,0,0,0,.31-1.16c0-.08,0-.23,0-.31s.35-.23.46-.39v-.08c-.1.08,0-.17.08-.23s.21.05.23.08,0,.22.08.31.3.2.39.31.15.39.31.54a4.52,4.52,0,0,0,3.09.54,7.15,7.15,0,0,0,1-.46c.27-.1.45,0,.7-.16.08,0,0-.27.08-.31s.23,0,.31,0v-.08l.54-.39c.08-.11,0-.24.08-.39h.08c.16-.08.42-.73.54-.85s.22-.06.23-.08,0-.18,0-.23.25-.22.31-.31.07-.29.15-.46c-.61.09-.44.2-.08-.23a5.69,5.69,0,0,0,.7-1.08l-.39.08c.1.1-.08.08-.08.08s-.07-.23-.08-.23-.09-.16.08-.08a1.47,1.47,0,0,1,0-.46l.15-.08a4.52,4.52,0,0,0-.08-2c-.09-.16-.44-.23-.54-.39s0-.39-.15-.46-.26,0-.39-.08,0-.2-.08-.23-.19,0-.23,0-.22-.26-.31-.31-.31-.06-.46-.15-.61-.55-.93-.62a3.37,3.37,0,0,0-1.93.39c-.17.06-.31,0-.46.08s-.2.34-.31.46a1.58,1.58,0,0,1-1.7.23,5.22,5.22,0,0,1-.31-.46c-.06-.32.11-.54.08-.93l-.15-.46c0-.75-.08-1.17-.08-2.16a6.45,6.45,0,0,0-.7.08v-.15c-.15-.06,0,.15-.15.08s0-.21-.08-.23.18-.1.08-.15c.42-.06.83-.21,1.16-.23.14,0,.25.09.31.08s.24-.23.31-.23c.57,0,.31.2.7.23v-.15a3.09,3.09,0,0,0,.69,0l.23-.15c.57-.06,1.75.06,2.55,0a2.49,2.49,0,0,0,.08.54h.08c.06,0,.18.26.23.31s.23.06.31.15c.37.46,1.33,2.17,1.85,2.32a6.8,6.8,0,0,0,1.78-.23c.13-.06.26-.4.39-.46s.42,0,.62-.08v-.08h.08s.11-.28.15-.31.5-.06.62-.23,0-.3,0-.39.15-.15.15-.15c-.19-.28-.42-.57-.62-.85a5.51,5.51,0,0,0-.77-1,6.34,6.34,0,0,0-.62-.23c-.05,0-.26-.22-.31-.23-.49-.14-.67.13-1,.08-.11,0-.23-.25-.31-.31l-.08-.08a2.26,2.26,0,0,1,.08-.85,10.08,10.08,0,0,0-.16-2c.15.11.26,0,.39.16s.15.47.23.77a1.28,1.28,0,0,1,.39.08s.13.23.15.23.36-.21.46-.23a7.19,7.19,0,0,1,1.39,0c.08.18.09.37.31.46s.58,0,.85.15.25.55.39,1c0,.06.21.3.23.39s-.05.3,0,.39l.93.46a12.68,12.68,0,0,0,2.16,0l.08-.15c.22,0,.24.09.46.08l.39-.15c.1,0,.7,0,.77,0s-.17.17.23.15.71-.24.85-.23.36.21.46.23a6,6,0,0,1,.85,0c.08,0,.22.23.31.23s.19-.12.39-.08c0,0-.17.19,0,.23s.49-.06.69,0c0,0,.11.21.16.23.28.15.66.09.93.23s.32.43.54.77c.12.19.41.28.54.46s.53.9.54.93,0,.18,0,.23.27.1.31.23a5.89,5.89,0,0,1,0,.7l.15.23a6.46,6.46,0,0,1,0,1.31,13.4,13.4,0,0,1,.08,2.09,13.2,13.2,0,0,1-.23,1.31c-.05.19-.27.48-.31.69a14.47,14.47,0,0,1-.54,3c-.05.12-.26.28-.31.39s-.05.44-.16.7-.26.33-.31.46c-.17.51-.13,1-.31,1.47s-.29.79-.46,1.24l-.15.15c-.12.7.21,1.39.15,2.09a10,10,0,0,1-.69,2.32c0,.05-.22.25-.23.31-.1.29,0,.5-.15.77a7,7,0,0,0-.39.69c-.16.56-.09,1-.23,1.62a6.49,6.49,0,0,0-.38,1.16,3.32,3.32,0,0,0,.08.46c.11-.09.3,0,.39-.15s0-.17,0-.23.45-.69.46-.7c.29-.19.71-.14,1-.31.09-.05.16-.24.23-.31h.15s1.19-1.55,1.24-1.62a7,7,0,0,1,.7-1.16c.15-.18.52-.31.62-.54a4.28,4.28,0,0,0,.15-1c.58,0,.49.06.39-.46a1,1,0,0,1,.31,0c.05-.13.14-.15.23-.23-.07-.22-.09-.38-.16-.62,0,0,.18,0,.23,0,.35-.64.52-.55,1.08-.93,0-.16.25-.39-.08-.39v-.15c0-.07.27-.17.31-.23.13-.26,0-.52.08-.85,0-.1.17-.38.23-.54.15.08,0-.05.08-.08a1.48,1.48,0,0,0,.23,0,2.24,2.24,0,0,0,.08.46,11,11,0,0,0,.7-1.47c0-.09,0-.22,0-.31s.21-.29.23-.39c.07-.31-.05-.52,0-.77,0-.08.22-.27.23-.31.11-.55,0-1.11.08-1.47l.15-.31C277.71,49.2,277.54,48.3,277.61,47.44ZM230.8,52.38a1,1,0,0,0-.23,0c0-.16.07-.08-.08-.16a7.72,7.72,0,0,1,.08-.93c0-.07.22-.28.23-.31.12-.44-.06-1,.23-1.24.11-.1.06.07.08.08s-.07.22-.08.23c-.09.26.08.25.08.54s-.2.6-.23.77C230.81,51.78,230.85,52,230.8,52.38Z"/><path class="cls-1" d="M315.3,77.48a6.6,6.6,0,0,0,0-1.24c-.07-.21-.35-.16-.46-.31s0-.27-.08-.39a7.4,7.4,0,0,0-1.08-1.08,4,4,0,0,0-1.24-.15,18.4,18.4,0,0,0-2,.39s-.22.11-.31.16.23-.31.23-.31.12.06.16.08l.23-.39a1.91,1.91,0,0,1,1-.08V74a4,4,0,0,0-2.86,1.08,5.85,5.85,0,0,0-.39.62s-.17,0-.23,0c-.31.12-.42.66-.31,1.16s.77.56-.08.85l-.23.16c-.15,0-.37-.2-.46-.23-.36-.13-1-.21-1.08-.54v-.16c-.09-.11-.32-.19-.39-.31s0-.38-.15-.54h-.15l-.46-.54c-.08-.11,0-.2-.08-.31s-.21-.12-.23-.16c-.17-.28-.11-.51-.23-.85s-.44-.58-.54-.85,0-.38-.08-.77-.38-.42-.46-.62,0-.32,0-.46a3,3,0,0,0-.23-.46c-.06-.1-.25-.21-.31-.31a13.63,13.63,0,0,0-.69-1.39c-.09-.11-.31-.2-.39-.31s-.09-.4-.23-.62-.63-.47-.85-.77c-.08-.11-.07-.29-.15-.39l-.08-.08c-.49-.17-.71-.65-1.08-.93s-.74-.32-1.08-.54c-.12-.08-.25-.33-.39-.39s-.51,0-.77-.16-.53-.58-.69-.62c-.32-.08-.4.16-.7.08v-.08c-.35-.18-.33-.46-.54-.77-.06-.09-.16-.06-.23-.16a1.2,1.2,0,0,1-.39,0,2.13,2.13,0,0,0-.08.46,1,1,0,0,0,.39.54c.32.26.62.36.39.77-.61,1.05-1.32-.7-1.7-.85-.74-.3-2.46.12-2.94-.23-.31-.23-.13-.78-.23-1.24,0-.18-.33-.51-.39-.69-.14-.45-.07-.88-.23-1.31,0-.05-.21-.11-.23-.16-.16-.25-.14-.46-.31-.69s-.41-.3-.54-.46a9.21,9.21,0,0,1-.46-.93c-.1-.16-.45-.36-.54-.46s-.21-.43-.39-.62-.51-.26-.69-.46-.07-.28-.16-.39-.32-.14-.46-.23l-.08-.15c-.16,0-.21.1-.31.15l-.39-.15a3.57,3.57,0,0,0,0,.54.9.9,0,0,0-.23.08c-.15-.14-.24-.34-.38-.46a9.91,9.91,0,0,0-1.08-.62,1.21,1.21,0,0,1-.23,0s.16.27.08.31c-.44.18-.86-.13-1-.15a5.57,5.57,0,0,0-1.47,0l-.08-.23h.15c.09,0,.78-.27.39-.31a3.37,3.37,0,0,0-.69,0,4.31,4.31,0,0,0-1.31.39c-.06,0-.16.2-.23.23s-.3,0-.46.08-.3.42-.46.54-.15,0-.23,0l-.39.31v.15h-.08c-.27.13-.44.68-.62.93,0,.07-.19.09-.23.16-.15.24-.16.47-.31.7s-.37.3-.46.46c-.18.31-.21.69-.39,1-.07.12-.26.25-.31.39a10.7,10.7,0,0,0-.31,1.31,10.53,10.53,0,0,0-.39,1.08c-.11.72,0,1.28-.08,2l-.15.23a6.63,6.63,0,0,0-.08,1.24,37.1,37.1,0,0,1,.23,3.78c-.12.9-.44,2-.62,2.78a6,6,0,0,1-.38,1.47c-.09.17-.28.24-.39.38s-.34.64-.54.93a2.46,2.46,0,0,0-.7,1.54,1,1,0,0,1,.31,0s.11.21.16.23a4.48,4.48,0,0,1-1.31.46c-.1,0-.13-.12-.31-.08-.42.1-.8.53-1.16.69a8.44,8.44,0,0,0-.93.31c-.1.06-.21.24-.31.31s-.36.1-.54.23-.12.21-.16.23c-.27.16-.49.11-.7.31s-.17.39-.31.54a2.17,2.17,0,0,1-1,.46c-1-1-1.62-2.25-2.7-3.09-.09-.07-.9-.61-.93-.62s-.25,0-.31,0v-.15a3.53,3.53,0,0,0-.54-.54c-.15-.1-.31-.06-.46-.16s-.17-.26-.23-.31-.36-.11-.54-.23-.09-.19-.16-.23c-.27-.2-.58-.26-.85-.46-.07-.06-.08-.18-.15-.23-.26-.16-.52-.15-.77-.31s-.29-.42-.46-.46-.28.05-.39,0-.27-.31-.39-.39a5,5,0,0,0-.54-.31v-.08c-.09,0-.16,0-.23,0s-.26-.32-.39-.39-.45-.09-.69-.23-.53-.43-.77-.54-.27,0-.39-.08a5.52,5.52,0,0,1-1-1.16c-.06-.08-.25-.08-.31-.16s0-.23-.08-.31S252,71,252,70.92s0-.16,0-.23-.37-.23-.46-.38-.14-.6-.31-.85-.38-.29-.46-.46a12.09,12.09,0,0,1-.46-1.55c0-.12-.28-.42-.31-.54s0-.36,0-.54-.28-.38-.31-.54a9.6,9.6,0,0,1,0-1c0-.07-.16-.54-.15-.62s.14-.24.15-.31a2.09,2.09,0,0,0,.46,0c0,.08.22.35.23.39s0,.25,0,.39.22.13.23.15c.17.73-.06,1.23.31,1.7a2.29,2.29,0,0,0,.85.46c.12,0,.27,0,.39,0s.31.32.46.39.44,0,.62.15.07.23.15.31.31.11.39.23c.2.33.13.72.31,1.08a2.6,2.6,0,0,0,.85.85c.13,0,.25,0,.39,0a.73.73,0,0,1,.08-.15c.13-.07.32-.12.39-.23s0-.24.08-.39c0,.21.06-.61,0-.77s-.27-.15-.31-.23a5.13,5.13,0,0,1-.23-.93c-.08,0-.12-.15-.15-.16s-.32,0-.46,0-.14-.2-.23-.31-.2-.1-.23-.15c-.28-.45,0-1.18.15-1.47s.09-.48.31-.62c.89-.58,1.38.57,1.7,1.08.09.14.19.37.31.54s.42.28.54.46,0,.23.08.39.25.22.31.31c.35.56.63,1.33,1.23,1.62,1.43.69,1.49-.56,1.93-1.31.11-.19.55-.43.62-.62V66.9c.11-.11.3-.1.39-.23.22-.33.24-1.21.54-1.39s.26,0,.46-.08a3.22,3.22,0,0,1,.46.62c.07.2,0,.22.08.39s.25.15.31.23c.19.26.2.51.39.77s.37.25.46.39,0,.3.15.46.33.36.46.54a2.87,2.87,0,0,0,.62.7,1.06,1.06,0,0,0,1.47-.62,2.9,2.9,0,0,0-.08-.85C267,67,267,66.25,267,65.59a3,3,0,0,0,0-.54,3.81,3.81,0,0,0-.31-.39c-.4-.29-1.08-.23-1.39-.62-.15-.19-.11-.41-.23-.62s-.31-.26-.39-.39c-.23-.37-.28-.83-.62-1.08-.1-.07-.3-.08-.39-.16s-.06-.25-.15-.31a2.72,2.72,0,0,0-1.78,0c-.15.06-.41.52-.54.62s-.63.28-.85.54-.13.45-.31.62-.54.18-.62.46c0,.08,0,.23,0,.31s-.22.11-.23.16a6.21,6.21,0,0,1-.93-.08c-.29-.1-.46-.94-.62-1.24,0-.07-.56-.8-.62-.85s-.25-.05-.31-.16,0-.27-.08-.31c-.22-.17-.53-.08-.77-.23,0,0-.12-.22-.15-.23a9.09,9.09,0,0,0-1.78.08c-.06,0-.09.2-.16.23s-.31,0-.46.08-.13.26-.23.31-.37,0-.54.16-.28.44-.46.54-.26,0-.46.08c.35-.58.47-.79.15-1.47a1.29,1.29,0,0,1-.23,0V61a2.84,2.84,0,0,0-1.47-.54c-.08,0-.17.19-.23.23-.29.19-.23.21-.38.54,0,0-.22.16-.23.23-.13.49.21.91.08,1.47,0,.08-.2.17-.23.23a4,4,0,0,0-.15.54s-.17,0-.23,0l-.31-.39a1.66,1.66,0,0,1,.08-1.16,2.23,2.23,0,0,1-.23-.08c-.05-.05-.17-.28-.23-.31a1.61,1.61,0,0,0-.85,0v-.15s0-.33,0-.54c-.44.16-.5.29-.77,1,0,0-.15.06-.15.08s.06.37.08.31c0,.1.08.31.08.31s-.13.06-.15.08.08.08.08.08c-.14.55-.11.84-.23,1.39,0-.24-.08-.79-.08-1.16,0,0-.15.1-.15.08a3.06,3.06,0,0,1-.08.85c-.05.11-.34.2-.39.31a8,8,0,0,0-.15,2.39c0,.21.2.59.23.77.09.43,0,.69.15,1.08.05.19.27.5.31.7s0,.27,0,.39.2.18.23.23a7.61,7.61,0,0,0,.31.77c0,.07.26.16.31.23s.11.35.23.54.18.08.23.15.11.31.23.46a11.74,11.74,0,0,0,1.7,1.62c.32.27.56.7.93.93a8.52,8.52,0,0,0,1.24.46c.07,0,.18.2.23.23s.28,0,.39.08.11.38.23.46.38.07.54.16l.08.15c.62.4,1.29.57,1.93.93a5.32,5.32,0,0,0,.54.39c.18.07.29,0,.46.08s.34.32.46.39a10.71,10.71,0,0,1,1.24.62c.19.14.34.48.54.62s.57.15.85.31c.1.05.13.24.23.31s.3,0,.46.15.14.25.23.31.39.07.54.16.13.25.23.31.24,0,.39.08.11.2.15.23a9.44,9.44,0,0,1,2.16,1.78c.16.24.13.54.31.77s.36.16.46.31a3.73,3.73,0,0,1,.31,1.24,11.5,11.5,0,0,1,.31,1.24c.13,1.29-.09,2.57.08,3.78l.15.31c.08.49,0,.85.08,1.31,0,.17.26.46.31.62s0,.31,0,.46.2.25.23.31a4,4,0,0,0,1.31,1.62c.06,0,.09.19.15.23s.26,0,.39.08c.39.25.64.79,1.08,1,.66.32-.36-.66-.39-.7s0-.15,0-.23h-.15c-.07-.12-.06-.25-.16-.31s-.21,0-.31-.08l-.15-.15v-.15c.21.06.35,0,.54.08a7.94,7.94,0,0,1,1.47,1.31V96s.17,0,.23,0a5.4,5.4,0,0,1,.31.62s.12.06.15.08c0,.32-.06.89.08.93-.17,1.11-.06,1.59-.23,2.7,0,.17-.21.57-.23.77s0,.58,0,.85c0,0-.05.32-.08.39l-.15.08c-.09.33,0,.52-.08.85,0,.13-.21.42-.23.54s0,.27,0,.39-.15.06-.16.08c0,.2.08.25,0,.54,0,.06-.21.31-.23.39-.13.43-.09.76-.23,1.16s-.36.66-.46.93-.13.31-.15.39v.23h-.16c0-.16,0-.24-.08-.31s0,.24-.08.16A10.27,10.27,0,0,1,267,109c-.07.18,0,.25-.08.39s-.12,0-.23,0c0,.36-.06.63.31.85a3.46,3.46,0,0,0,2,.31s.05-.27.08-.31a1.4,1.4,0,0,1,.31-.23c1-.63.06-.87.31-1.93,0,0,.21-.2.23-.23a13.54,13.54,0,0,0,.62-1.62,7.31,7.31,0,0,1,.77-2.39s-.12-.09-.08-.23.23-.22.23-.23c0-.18-.13-.13-.08-.31a1.57,1.57,0,0,0,.08-.23h.15c0-.15,0-.31,0-.46a2.93,2.93,0,0,1,.23-.39c0-.06-.09-.17-.08-.31a3.58,3.58,0,0,1,.23-.46c0-.14-.1-.16-.08-.31l.15-.15c0-.12,0-.49.08-.62s0-.54,0-.62v-.16h.15c-.08.55,0,1.14-.15,1.7a6.85,6.85,0,0,1-.23.93l-.16.16s0,1,.16.62c0-.06.14-.34.15-.39.16-.68.16-1.14.31-1.85,0-.09.21-.47.23-.62.07-.5,0-.81.08-1.31s.27-1.13.31-1.55.08-.84.08-1.24c-.08,0-.14-.21-.23-.23s-.32,0-.46,0V95.4a.51.51,0,0,1-.23-.08c-.36-.2-.34-.1.08-.23a3.05,3.05,0,0,0-.39-.93c-.12-.15-.47-.19-.62-.31s-.23-.4-.39-.54a8.63,8.63,0,0,0-.85-.46c-.15-.11-.24-.35-.38-.46a6.94,6.94,0,0,0-.7-.39s.43.51.08.39l-.08-.15c-.57-.37-1-.76-1.47-1.16l-.08-.08c-.08-.13,0-.24-.08-.39s-.21-.1-.23-.15,0-.42,0-.62c0-.35-.2-.68-.23-.93a20.81,20.81,0,0,1,.08-2.39,4.42,4.42,0,0,1-.08-1.39c.08-.24.62-.33.77-.54s0-.24.08-.39a3.3,3.3,0,0,0,.39-.77c0-.08,0-.23,0-.31A7.1,7.1,0,0,1,269.19,82a7.58,7.58,0,0,1,2.7-.7c.26,0,.72-.27,1-.31a6,6,0,0,0,.62,0c.08,0,.31-.29.39-.31.41-.1.9.07,1.31,0,.09,0,.4-.22.46-.23a6.33,6.33,0,0,0,1-.08s.25-.21.31-.23c.24-.08.37,0,.62-.08s.73-.36,1-.46a7.53,7.53,0,0,0,1.16-.38c.05,0,.17-.2.23-.23s.17,0,.23,0a10.8,10.8,0,0,0,1.7-1,10,10,0,0,0,1.23-1.39c.32-.38.81-.66,1.08-1.08.13-.21.11-.41.23-.62s.47-.57.62-.85.16-.61.31-.93c0,0,.14-.05.15-.08.27-.42.36-.9.62-1.31s.5-.58.7-.85.12-.41.31-.54.34-.07.46-.16.1-.34.23-.39a2.5,2.5,0,0,1,.62,0c.3.7,0,.32.08,1l.15.15a2.52,2.52,0,0,1,0,.7,4.92,4.92,0,0,0-.08,1.85c0,.09.29.27.31.39.09.44-.24.78-.15,1.16,0,0,.21.12.23.16s.07.4.15.54.37.31.46.46a14.8,14.8,0,0,1,.54,1.54c.06.13.33.33.39.46s0,.44.15.62c.22.35.77.49,1.08.77,0,0,.05.2.08.23s.33.18.46.31.22.43.39.62.32.18.46.31.29.4.46.54l.08.08a3.84,3.84,0,0,0,1.31-.08c.63-.07,1-.06,1.7-.15,1-.15,1.38-.82,2.55-.46a9.13,9.13,0,0,0,.15-3.09c0-.19-.3-.33-.39-.46l-.31-.54c0-.08,0-.16,0-.23s-.37-.32-.46-.46-.43-.81-.77-.85-.14.12-.39.08c-.05,0-.21-.22-.23-.23.25,0,.71-.08,1.08-.08,0-.07.11-.15.08-.31l-.15-.16c-.07-.18,0-.43-.15-.54-.4-.36-1.51-.18-2,0l-.15.08v.08h-.15l-.08.15-.15.08h-.15l-.16.15s0,.1-.08.16a2.21,2.21,0,0,0-.08.23l-.16.16c-.07.14,0,.06-.08.15a2.27,2.27,0,0,0-.54.77c-.06.24-.07,1.39.08,1.47s-.18.26-.08.31a2.52,2.52,0,0,0-.31.23c-.14-.08-.27,0-.39-.08a3.84,3.84,0,0,1-.62-1c-.1-.2-.29-.36-.39-.54a8.18,8.18,0,0,1-.54-1.85c-.14-.7,0-1.3-.16-2.08l-.15-.39c0-.44.14-.69.08-1.16,0,0-.11-.37-.16-.39v-.16a1.35,1.35,0,0,0,.16-.77l-.16-.15a1.12,1.12,0,0,1,0-.77s.18-.23.23-.31h-.15a1.3,1.3,0,0,0,0-.23,6.19,6.19,0,0,1,1.78-.08c0-.09.07-.28.16-.31.42-.12.73.2,1.08.08.09,0,0-.19.08-.31-.05.11-.08-.12-.08-.15h.08a7.45,7.45,0,0,1,.31-.7c.17-.1.32,0,.46-.08s.11-.32.15-.38.14,0,.23,0,.44.39.62.46.32,0,.54.08a6.59,6.59,0,0,1,1.16.62c.18.16.18.47.38.62s.23,0,.31,0,.39.61.62.69h.15c.39.43.43,1,.77,1.55.08.12.3.19.39.31.19.27.2.63.39.93a6.93,6.93,0,0,1,.54.7,15.08,15.08,0,0,1,.77,2c.11.37.06.78.31,1s.31.08.46.16c0,0,0,.2,0,.23-.17,0-.2,0-.31.08.14.58.45,1,.62,1.54a7.16,7.16,0,0,0,.62,1.85c0,.07.26.17.31.23s.2.45.39.62.28.11.38.23,0,.17,0,.23a3.66,3.66,0,0,0,.54.46,5.71,5.71,0,0,0,2.39.46c.31-.07.57-.45,1.08-.39s.71.54,1.16.62a2.56,2.56,0,0,0,1.55-.39,9.31,9.31,0,0,0,1.24-.39c.23-.13.46-.41.7-.54s.56-.11.77-.31c0,0,0-.18,0-.23s.2-.12.23-.16c.19-.25.19-.66.39-.93.05-.08.31-.17.39-.23A5.79,5.79,0,0,1,315.3,77.48ZM286.72,65.74c-.14.37-.63.46-.93.69a6.29,6.29,0,0,0-.85,1.08c-.17.2-.49.38-.62.62s-.07.38-.15.54a5.1,5.1,0,0,0-.54.85l-.16.08c0,.31.17.43.23.62v.16c-.16,0,0,.17-.08.31a7.86,7.86,0,0,1-.85,1.7c0,.07-.28.23-.31.31s0,.23,0,.31a4,4,0,0,1-.46.46c-.08,0-.16,0-.23,0v-.23c.13,0,.12-.29.16-.39a2.77,2.77,0,0,0-1,.85c-.1.15-.06.31-.15.46s-.21.11-.23.15,0,.21-.08.31-.38.24-.54.39-.18.35-.31.46a10,10,0,0,1-1,.62,7.17,7.17,0,0,1-1,.77c-.56.25-1.09.25-1.7.46-.07,0-.24.22-.31.23a3.68,3.68,0,0,1-1.08.08c-.07,0-.18-.26-.23-.31-.51-.58-.31-.62.39-.85v-.31a3.12,3.12,0,0,0-.46.15v-.15l-.08-.15h.08a4.28,4.28,0,0,1,.23-.7c0-.06.2-.16.23-.23.14-.34.1-.67.23-1,0,0,.21-.24.23-.31.15-.46.06-.85.23-1.31,0,0,.15-.06.16-.08a7,7,0,0,1-.7,3.56H275c.15-.38.22-.76.38-1.16.08-.19.32-.43.39-.62s0-.47.08-.77.34-.79.39-1.08c.19-1.35-.14-2.66.08-3.86a4.57,4.57,0,0,1,.23-.77c0-.06.28-.25.31-.31s0-.18,0-.23.14,0,.23-.08a1.93,1.93,0,0,0,.62-.77,8.56,8.56,0,0,0,.15-.93c0-.18.29-.52.31-.7s-.15-.5-.08-.85.7-.57.85-.93,0-.5.08-.77l.16-.08c0-.08,0-.23.08-.31s.34-.25.46-.39.21-.47.39-.69.68-.43,1.08-.7c.12-.08.19-.29.31-.39a3.37,3.37,0,0,1,2-.7,1.5,1.5,0,0,1,.47,0v.08c.38.19.61,1.16.93,1.47,0,0,.22.06.23.08a4.72,4.72,0,0,1,.23.77c.11.3.36.59.46.85.19.49.18,1,.39,1.47.06.14.25.24.31.39s0,.26,0,.39.22.26.23.31A2,2,0,0,1,286.72,65.74Zm5.33,11.2c.08,0,0,.15.08.23s.31.2.39.31c.26.38.38.84.77,1.08.18.11.5.07.62.23a3.12,3.12,0,0,1,.23.62c-.08.07-.11.21-.16.31-.59,0-.91,0-1.16-.54-.06-.13,0-.26-.08-.38s-.36-.17-.46-.31,0-.25-.08-.39-.21-.16-.23-.23c-.11-.4-.06-.62-.15-.93C291.87,77,292,76.92,292.05,76.94Z"/><path d="M144.07,137.42a1.63,1.63,0,1,1,1.75-1.64A1.63,1.63,0,0,1,144.07,137.42Zm-1.69,13.34V140.3l3-.79v11.25Z"/><path d="M150.31,151.09a1.85,1.85,0,0,1-1.9-1.78,1.9,1.9,0,0,1,2-1.8,1.84,1.84,0,0,1,1.9,1.78A1.93,1.93,0,0,1,150.31,151.09Z"/><path d="M158.36,151.09a12.8,12.8,0,0,1-3.93-.7l.77-2.27a7.16,7.16,0,0,0,3.09.84c.66,0,1.57-.07,1.57-1,0-.73-.54-1-1.29-1.26l-1.33-.49c-1.45-.54-2.64-1.38-2.64-3.09,0-2.62,2.53-3.44,4.84-3.44a11.11,11.11,0,0,1,3.44.66l-.77,2.15a6.29,6.29,0,0,0-2.69-.75c-.89,0-1.78.14-1.78,1s.63,1,1.54,1.33l1.19.42c1.43.49,2.64,1.19,2.64,3.16C163,149.87,160.91,151.09,158.36,151.09Z"/><path d="M167.47,151.09a1.85,1.85,0,0,1-1.9-1.78,1.9,1.9,0,0,1,2-1.8,1.84,1.84,0,0,1,1.9,1.78A1.93,1.93,0,0,1,167.47,151.09Z"/><path d="M185,150.76V145c0-1.52,0-3.09-1.89-3.09a3,3,0,0,0-1.47.37v8.52h-3v-5.87c0-1.52,0-3.09-1.94-3.09a4,4,0,0,0-1.59.51v8.45h-3V140.3l3-.73v1.52a4.57,4.57,0,0,1,3-1.4,3.34,3.34,0,0,1,3,1.4h.23a5.43,5.43,0,0,1,3.14-1.33,3.14,3.14,0,0,1,3.46,3.39v7.6Z"/><path d="M192.95,151.09a1.85,1.85,0,0,1-1.9-1.78,1.9,1.9,0,0,1,2-1.8,1.84,1.84,0,0,1,1.9,1.78A1.93,1.93,0,0,1,192.95,151.09Z"/><path d="M202.47,150.76V134.94l3-1v16.82Z"/><path d="M210.22,137.42a1.63,1.63,0,1,1,1.75-1.64A1.63,1.63,0,0,1,210.22,137.42Zm-1.68,13.34V140.3l3-.79v11.25Z"/><path d="M227.46,150.76V145c0-1.52,0-3.09-1.9-3.09a3,3,0,0,0-1.47.37v8.52h-3v-5.87c0-1.52,0-3.09-1.94-3.09a4,4,0,0,0-1.59.51v8.45h-3V140.3l3-.73v1.52a4.57,4.57,0,0,1,3-1.4,3.34,3.34,0,0,1,3,1.4h.23a5.43,5.43,0,0,1,3.13-1.33,3.14,3.14,0,0,1,3.46,3.39v7.6Z"/><path d="M238.18,151.09a5.46,5.46,0,0,1-2.57-.7l-2.08,1V134.9l3-.91v7.07a3.93,3.93,0,0,1,2.78-1.33c3.11,0,4.56,2.41,4.56,5.29C243.84,148.52,241.64,151.09,238.18,151.09Zm-.56-9.24a3,3,0,0,0-1.12.21v6.39a2.12,2.12,0,0,0,1.54.82c1.57,0,2.81-1.54,2.81-3.53S240,141.85,237.62,141.85Z"/><path d="M252.69,151.32v-1.73a4,4,0,0,1-3,1.5,3.11,3.11,0,0,1-3.44-3.37V140.3l3-.68v7c0,1.87.33,2.39,1.66,2.39a2.86,2.86,0,0,0,1.8-.66v-8l3-.7v10.74Z"/><path d="M264.67,143l-1.4-.91c-.68,0-1.19.68-1.52,1.1v7.58h-3V140.3l3-.68v2.25c.75-1,1.68-2.18,2.48-2.18a2.31,2.31,0,0,1,2,.94Z"/><path d="M278.33,142.59h-1c.07,3.07-1.92,4.84-5.1,4.84a6.45,6.45,0,0,1-1.75-.23.94.94,0,0,0-.4.75c0,.63.49,1,1.69,1h2.81c1.54,0,3.39.7,3.39,2.64,0,2.43-2.55,4.37-6.48,4.37-2.29,0-4.54-.54-4.54-2.78,0-1.29,1.22-2.11,2.5-2.41a2,2,0,0,1-1.61-1.87c0-.89.84-1.61,1.71-2a3.59,3.59,0,0,1-2.48-3.14c0-3.16,2.48-4.09,5.41-4.09a9.19,9.19,0,0,1,2.9.61H279Zm-5,8.8-3.21-.14a1.78,1.78,0,0,0-.51,1.24c0,1.31,1,2,2.48,2,2.34,0,2.92-1.12,2.92-2.08C275,151.79,274.66,151.44,273.33,151.39Zm.84-9.59a4.07,4.07,0,0,0-1.76-.37,2.22,2.22,0,0,0-2.48,2.2,2.13,2.13,0,0,0,2.29,2.25c1.43,0,2.11-1.24,2.11-2.57A5.18,5.18,0,0,0,274.17,141.8Z"/><path d="M282.38,151.09a1.85,1.85,0,0,1-1.9-1.78,1.9,1.9,0,0,1,2-1.8,1.84,1.84,0,0,1,1.9,1.78A1.93,1.93,0,0,1,282.38,151.09Z"/><path d="M291.72,151.09a5.46,5.46,0,0,1-2.57-.7l-2.08,1V134.9l3-.91v7.07a3.94,3.94,0,0,1,2.79-1.33c3.11,0,4.56,2.41,4.56,5.29C297.38,148.52,295.18,151.09,291.72,151.09Zm-.56-9.24a3,3,0,0,0-1.12.21v6.39a2.13,2.13,0,0,0,1.54.82c1.57,0,2.81-1.54,2.81-3.53S293.57,141.85,291.16,141.85Z"/><path d="M308.52,145.38l-6.67.19v.26a2.77,2.77,0,0,0,2.95,2.76,6.67,6.67,0,0,0,3.37-.91l-.56,2.76a7.84,7.84,0,0,1-3.3.65c-3,0-5.24-1.92-5.24-5.57,0-3,1.73-5.83,5.41-5.83,2.53,0,4.26,1.33,4.26,3.91A6.1,6.1,0,0,1,308.52,145.38Zm-4.09-3.88A2.63,2.63,0,0,0,302,143.9l3.81-.14a3.79,3.79,0,0,0,0-.7A1.5,1.5,0,0,0,304.42,141.49Z"/></g></g></svg>