<svg xmlns="http://www.w3.org/2000/svg" viewBox="0 0 559.32 341.44"><defs><style>.cls-1{fill:#918982;}.cls-2{fill:#eff810;}.cls-3{fill:#7c7271;}</style></defs><title>Asset 1</title><g id="Layer_2" data-name="Layer 2"><g id="Laag_1" data-name="Laag 1"><path class="cls-1" d="M187,114.48q6.86-42.14-3.2-9.88Q173,147.43,155.62,169.89c-11.58,15-19.4,24.25-23.38,28a64.3,64.3,0,0,1-15.19,10c-7.46,3.57-15.42-12.13-23.93-47.68C89,142.67,84.51,119.47,79.94,91.1a430.29,430.29,0,0,1,.41,68.68,132.17,132.17,0,0,0-9-14.92c-6.73-9.56-13.5-15.05-20.09-16.24a243.79,243.79,0,0,1,20.09,32.12c1.1,2.1,2.15,4.21,3.07,6.13C100.71,222.29,98.88,280,69,340.61q36.58-24.71,100.76.82-69.25-103.91,6.73-167.29c3.52-2.33,5.49-3.61,5.9-3.8q18.6-20.18,13.09-30c-9.79,16.38-18.21,24.57-25.3,24.48L187,114.48Z"/><path class="cls-2" d="M119.56,160.42a16.24,16.24,0,0,0-11.62,27.64l.09.09a16.24,16.24,0,0,0,23,0l.14-.09a16.24,16.24,0,0,0-11.58-27.64Z"/><path class="cls-1" d="M64,47.54l2.56,0C81.31,41.59,88.63,25.76,88.31,0Q53,15.58,64,47.54Zm98.93,93.66,1.78-1.83q9.4-22-18.26-49-13.93,36,16.47,50.84Zm-65.48-15q23.75-2.81,33.31-40.22Q92.57,91.81,94.9,125.56l2.52.64ZM61.09,84.74l1.83-1.88c6.22-14.64.14-31-18.26-49q-14,36,16.43,50.84ZM87.62,87c.14.46.23.73.32,1l2.56-.09c.69-.27,1.37-.59,2.11-.91,13.32-6.5,20-22,19.67-46.54Q77.42,55.75,87.62,87Zm-48,56.19.64-2.56Q37.41,116.93,0,107.35c3.89,25.39,17.11,37.38,39.58,35.83Zm27.91-22.47.59-2.52c-1.88-15.79-15.28-27-40.22-33.31Q33.7,123,67.49,120.71Zm-2.33,67,.64-2.52c-1.83-15.83-15.28-27-40.17-33.36,3.8,25.39,17.07,37.38,39.53,35.87ZM196.34,81.58l2.52-.73c12.72-9.56,15.7-26.77,8.69-51.52-20,16.06-23.79,33.49-11.21,52.25Zm-20,12.22,1.83-1.87c6.22-14.64.18-31-18.26-49-9.29,24-3.89,40.91,16.43,50.84Zm25,10.89.6,2.52c22.51,1.56,35.74-10.43,39.62-35.83q-37.41,9.54-40.22,33.31Zm6.82,41.14c22.51,1.56,35.69-10.43,39.62-35.83-25,6.36-38.34,17.48-40.27,33.27l.64,2.56Z"/><path class="cls-3" d="M184.21,220.11h23.55v4.74H189.85v14.53h16.54v4.67H189.85v19.79h-5.65Z"/><path class="cls-3" d="M233,263.84l-.45-4h-.19a11.7,11.7,0,0,1-9.6,4.67c-6.36,0-9.6-4.48-9.6-9,0-7.59,6.75-11.74,18.88-11.68v-.65c0-2.6-.71-7.27-7.14-7.27a15.64,15.64,0,0,0-8.17,2.34l-1.3-3.76a19.49,19.49,0,0,1,10.32-2.79c9.6,0,11.94,6.55,11.94,12.85v11.74a44.22,44.22,0,0,0,.52,7.53Zm-.84-16c-6.23-.13-13.3,1-13.3,7.07a5.05,5.05,0,0,0,5.38,5.45,7.81,7.81,0,0,0,7.59-5.25,6,6,0,0,0,.32-1.82Z"/><path class="cls-3" d="M246.89,240.94c0-3.24-.06-5.9-.26-8.5h5l.26,5.06h.19a10.82,10.82,0,0,1,9.86-5.77,9.28,9.28,0,0,1,8.89,6.29H271a12.94,12.94,0,0,1,3.5-4.09,10.72,10.72,0,0,1,6.94-2.21c4.15,0,10.32,2.73,10.32,13.63v18.49h-5.58V246.07c0-6-2.21-9.67-6.81-9.67a7.39,7.39,0,0,0-6.75,5.19,9.41,9.41,0,0,0-.45,2.85v19.4h-5.58V245c0-5-2.21-8.63-6.55-8.63-3.57,0-6.16,2.85-7.07,5.71a7.88,7.88,0,0,0-.45,2.79v18.95h-5.58Z"/><path class="cls-3" d="M307.36,223.62a3.54,3.54,0,0,1-7.07,0,3.48,3.48,0,0,1,3.57-3.57A3.39,3.39,0,0,1,307.36,223.62ZM301,263.84v-31.4h5.71v31.4Z"/><path class="cls-3" d="M316.18,217.78h5.71v46.07h-5.71Z"/><path class="cls-3" d="M337.85,223.62a3.54,3.54,0,0,1-7.07,0,3.48,3.48,0,0,1,3.57-3.57A3.39,3.39,0,0,1,337.85,223.62Zm-6.36,40.23v-31.4h5.71v31.4Z"/><path class="cls-3" d="M349.85,249.18c.13,7.72,5.06,10.9,10.77,10.9a20.65,20.65,0,0,0,8.69-1.62l1,4.09a25.43,25.43,0,0,1-10.45,1.95c-9.67,0-15.44-6.36-15.44-15.83s5.58-16.93,14.73-16.93c10.25,0,13,9,13,14.79a21.44,21.44,0,0,1-.19,2.66Zm16.74-4.09c.07-3.63-1.49-9.28-7.92-9.28-5.77,0-8.3,5.32-8.76,9.28Z"/><path class="cls-3" d="M384.82,246.84h.13c.78-1.1,1.88-2.46,2.79-3.57l9.21-10.83h6.88l-12.13,12.91,13.82,18.49h-6.94l-10.83-15.05L384.82,252v11.81h-5.64V217.78h5.64Z"/><path class="cls-3" d="M435.88,255.28c0,3.24.07,6.1.26,8.56h-5.06l-.32-5.13h-.13a11.82,11.82,0,0,1-10.38,5.84c-4.93,0-10.83-2.73-10.83-13.75V232.44h5.71v17.39c0,6,1.82,10,7,10a8.25,8.25,0,0,0,7.53-5.19,8.36,8.36,0,0,0,.52-2.92V232.44h5.71Z"/><path class="cls-3" d="M445.35,240.94c0-3.24-.07-5.9-.26-8.5h5.06l.33,5.19h.13a11.55,11.55,0,0,1,10.38-5.9c4.35,0,11.09,2.6,11.09,13.37v18.75h-5.71v-18.1c0-5.06-1.88-9.28-7.27-9.28a8.11,8.11,0,0,0-7.66,5.84,8.2,8.2,0,0,0-.39,2.66v18.88h-5.71Z"/><path class="cls-3" d="M508.47,217.78v38c0,2.79.06,6,.26,8.11h-5.13l-.26-5.45h-.13a11.61,11.61,0,0,1-10.71,6.16c-7.59,0-13.43-6.42-13.43-16-.07-10.45,6.42-16.87,14.08-16.87,4.8,0,8,2.27,9.47,4.8h.13V217.78Zm-5.71,27.44a10.1,10.1,0,0,0-.26-2.4,8.4,8.4,0,0,0-8.24-6.62c-5.9,0-9.41,5.19-9.41,12.13,0,6.36,3.11,11.61,9.28,11.61a8.58,8.58,0,0,0,8.37-6.81,9.94,9.94,0,0,0,.26-2.47Z"/><path class="cls-3" d="M521.12,249.18c.13,7.72,5.06,10.9,10.77,10.9a20.65,20.65,0,0,0,8.69-1.62l1,4.09a25.43,25.43,0,0,1-10.45,1.95c-9.67,0-15.44-6.36-15.44-15.83s5.58-16.93,14.73-16.93c10.25,0,13,9,13,14.79a21.44,21.44,0,0,1-.19,2.66Zm16.74-4.09c.07-3.63-1.49-9.28-7.92-9.28-5.77,0-8.3,5.32-8.76,9.28Z"/><path class="cls-3" d="M334.14,314.24l-11.09-34h4.74L333.08,297c1.46,4.59,2.72,8.72,3.63,12.71h.1c1-3.93,2.37-8.22,3.88-12.65l5.75-16.79h4.69l-12.15,34Z"/><path class="cls-3" d="M354.65,278.45h4.44v35.79h-4.44Z"/><path class="cls-3" d="M380.06,314.24l-.35-3.08h-.15a9.09,9.09,0,0,1-7.46,3.63c-4.94,0-7.46-3.48-7.46-7,0-5.9,5.24-9.12,14.67-9.07v-.5c0-2-.55-5.65-5.55-5.65a12.16,12.16,0,0,0-6.35,1.82l-1-2.92a15.14,15.14,0,0,1,8-2.17c7.46,0,9.28,5.09,9.28,10v9.13a34.33,34.33,0,0,0,.4,5.85Zm-.66-12.45c-4.84-.1-10.33.76-10.33,5.5a3.93,3.93,0,0,0,4.18,4.23,6.07,6.07,0,0,0,5.9-4.08,4.63,4.63,0,0,0,.25-1.41Z"/><path class="cls-3" d="M404.36,314.24l-.35-3.08h-.15a9.09,9.09,0,0,1-7.46,3.63c-4.94,0-7.46-3.48-7.46-7,0-5.9,5.24-9.12,14.67-9.07v-.5c0-2-.55-5.65-5.55-5.65a12.16,12.16,0,0,0-6.35,1.82l-1-2.92a15.14,15.14,0,0,1,8-2.17c7.46,0,9.28,5.09,9.28,10v9.13a34.33,34.33,0,0,0,.4,5.85Zm-.66-12.45c-4.84-.1-10.33.76-10.33,5.5a3.93,3.93,0,0,0,4.18,4.23,6.07,6.07,0,0,0,5.9-4.08,4.63,4.63,0,0,0,.25-1.41Z"/><path class="cls-3" d="M415.14,296.45c0-2.52-.05-4.59-.2-6.6h3.93l.25,4h.1a9,9,0,0,1,8.07-4.59c3.38,0,8.62,2,8.62,10.38v14.57h-4.44V300.18c0-3.93-1.46-7.21-5.65-7.21a6.3,6.3,0,0,0-5.95,4.54,6.4,6.4,0,0,0-.3,2.07v14.67h-4.44Z"/><path class="cls-3" d="M464.2,278.45v29.49c0,2.17,0,4.64.2,6.3h-4l-.2-4.23h-.1a9,9,0,0,1-8.32,4.79c-5.9,0-10.44-5-10.44-12.4-.05-8.12,5-13.11,10.94-13.11,3.73,0,6.25,1.76,7.36,3.73h.1V278.45Zm-4.44,21.33a7.82,7.82,0,0,0-.2-1.87,6.52,6.52,0,0,0-6.4-5.14c-4.59,0-7.31,4-7.31,9.43,0,4.94,2.42,9,7.21,9a6.67,6.67,0,0,0,6.5-5.29,7.7,7.7,0,0,0,.2-1.92Z"/><path class="cls-3" d="M474,302.85c.1,6,3.93,8.47,8.37,8.47a16,16,0,0,0,6.76-1.26l.76,3.18a19.78,19.78,0,0,1-8.12,1.51c-7.51,0-12-4.94-12-12.3s4.34-13.16,11.44-13.16c8,0,10.08,7,10.08,11.49a16.87,16.87,0,0,1-.15,2.07Zm13-3.18c0-2.82-1.16-7.21-6.15-7.21-4.49,0-6.45,4.13-6.81,7.21Z"/><path class="cls-3" d="M496.81,297.45c0-2.87-.05-5.34-.2-7.61h3.88l.15,4.79h.2c1.11-3.28,3.78-5.34,6.75-5.34a4.81,4.81,0,0,1,1.26.15v4.18a6.68,6.68,0,0,0-1.51-.15c-3.13,0-5.34,2.37-5.95,5.7a12.41,12.41,0,0,0-.2,2.07v13h-4.39Z"/><path class="cls-3" d="M515.76,302.85c.1,6,3.93,8.47,8.37,8.47a16,16,0,0,0,6.76-1.26l.76,3.18a19.77,19.77,0,0,1-8.12,1.51c-7.51,0-12-4.94-12-12.3s4.33-13.16,11.44-13.16c8,0,10.08,7,10.08,11.49a16.87,16.87,0,0,1-.15,2.07Zm13-3.18c.05-2.82-1.16-7.21-6.15-7.21-4.49,0-6.45,4.13-6.81,7.21Z"/><path class="cls-3" d="M538.55,296.45c0-2.52-.05-4.59-.2-6.6h3.93l.25,4h.1a9,9,0,0,1,8.07-4.59c3.38,0,8.62,2,8.62,10.38v14.57h-4.44V300.18c0-3.93-1.46-7.21-5.65-7.21a6.3,6.3,0,0,0-5.95,4.54,6.4,6.4,0,0,0-.3,2.07v14.67h-4.44Z"/></g></g></svg>